<mxfile host="app.diagrams.net" modified="2023-03-14T13:29:44.359Z" agent="5.0 (Macintosh; Intel Mac OS X 10_15_7) AppleWebKit/537.36 (KHTML, like Gecko) Chrome/110.0.0.0 Safari/537.36" etag="vy63gvJD0RPnAm4RZ_Pm" version="21.0.6" type="github">
  <diagram name="Page-1" id="XdM8kLimyI-6TCc_0_ml">
    <mxGraphModel dx="1434" dy="771" grid="1" gridSize="10" guides="1" tooltips="1" connect="1" arrows="1" fold="1" page="1" pageScale="1" pageWidth="850" pageHeight="1100" math="0" shadow="0">
      <root>
        <mxCell id="0" />
        <mxCell id="1" parent="0" />
        <mxCell id="GzNp09a5p9RIQE0UfILk-1" value="" style="outlineConnect=0;dashed=0;verticalLabelPosition=bottom;verticalAlign=top;align=center;html=1;shape=mxgraph.aws3.dynamo_db;fillColor=#2E73B8;gradientColor=none;" vertex="1" parent="1">
          <mxGeometry x="630" y="370" width="80" height="80" as="geometry" />
        </mxCell>
        <mxCell id="GzNp09a5p9RIQE0UfILk-16" style="edgeStyle=orthogonalEdgeStyle;rounded=0;orthogonalLoop=1;jettySize=auto;html=1;" edge="1" parent="1">
          <mxGeometry relative="1" as="geometry">
            <mxPoint x="320" y="302.5" as="targetPoint" />
            <mxPoint x="275" y="302.5" as="sourcePoint" />
          </mxGeometry>
        </mxCell>
        <mxCell id="GzNp09a5p9RIQE0UfILk-17" style="edgeStyle=orthogonalEdgeStyle;rounded=0;orthogonalLoop=1;jettySize=auto;html=1;" edge="1" parent="1" source="GzNp09a5p9RIQE0UfILk-6">
          <mxGeometry relative="1" as="geometry">
            <mxPoint x="170" y="305" as="targetPoint" />
          </mxGeometry>
        </mxCell>
        <mxCell id="GzNp09a5p9RIQE0UfILk-6" value="" style="shape=image;html=1;verticalAlign=top;verticalLabelPosition=bottom;labelBackgroundColor=#ffffff;imageAspect=0;aspect=fixed;image=https://cdn1.iconfinder.com/data/icons/business-488/128/17-128.png" vertex="1" parent="1">
          <mxGeometry x="40" y="270" width="70" height="70" as="geometry" />
        </mxCell>
        <mxCell id="GzNp09a5p9RIQE0UfILk-18" style="edgeStyle=orthogonalEdgeStyle;rounded=0;orthogonalLoop=1;jettySize=auto;html=1;" edge="1" parent="1" source="GzNp09a5p9RIQE0UfILk-8">
          <mxGeometry relative="1" as="geometry">
            <mxPoint x="530" y="302.5" as="targetPoint" />
          </mxGeometry>
        </mxCell>
        <mxCell id="GzNp09a5p9RIQE0UfILk-8" value="" style="shape=image;verticalLabelPosition=bottom;labelBackgroundColor=default;verticalAlign=top;aspect=fixed;imageAspect=0;image=data:image/png,iVBORw0KGgoAAAANSUhEUgAAAfQAAAHzCAYAAADW0+8yAAAACXBIWXMAAC4jAAAuIwF4pT92AABn3UlEQVR4Xu2dB3iT1ffHs9PF3ntP2UOWgILKEARUQEEQBQf+UBy4caKAEwUFEUREAUH2puxR9t57l1LobrOaJvmf0zb8S22b900z3uT95nnyFJI7zv2cm/fcdc5VKPACARAAARAAARAAARAAARAAARAAARAAARAAARAAARAAARAAARAAARAAARAAARAAARAAARAAARAAARAAARAAARAAARAAARAAARAAARAAARAAARAAARAAARAAARAAARAAARAAARAAARAAARAAARAAARAAARAAARAAARAAARAAARAAARAAARAAARAAARAAARAAARAAARAAARAAARAAARAAARAAARAAARAAARAAARAAARAAARAAARAAARAAARAAARAAARAAARAAARAAARAAARAAARAAARAAARAAARAAARAAARAAARAAARAAARAAARAAARAAARAAARAAARAAARAAARAAARAAARAAARAAARAAARAAARAAARAAARAAARAAARAAARAAARAAARAAARAAARAAARAAARAAARAAARAAARAAARAAARAAARAAARAAARAAARAAARAAARAAARAAARAAARAAARAAARAAARAAARAAARAAARAAARAAARAAARAAARAAARAAARAAARAAARAAARAAARAAARAAARAAARAAARAAARAAARAAARAAARAAARAAARAAARAAARAAARAAARAAARAAARAAARAAARAAARAAARAAARAAARAAARAAARAAARAAARAAARAAARAAARAAARAAARAAARAAARAAARAAARAAARAAARAAARAAARAAARAAARAAARAAARAAARAAARAAARAAARAAARAAARAAARAAARAAARAAARAAARAAARAAARAAARAAARAAARAAARAAARAAARAAARAAARAAARAAARAAARAAARAAARAAARAAARAAARAAARAAARAAARAAARAAARAAARAAARAAARAAARAAARAAARAAARAAARAAARAAARAAARAAARAAARAAARAAARAAARAAARAAARAAARAAARAAARAAARAAARAAARAAARAAARAAARAAARAAARAAARAAARAAARAAARAAARAAARAAARAAARAAARAAARAAARAAARAAARAAARAAARAAARAAARAAARAAARAAARAAARAAARAAARAAARAAARAAARAAARAAARAAARAAARAAARAAARAAARAAARAAARAAARAAARAAARAAARAAARAAARAAARAAARAAARAAARAAARAAARAAARAAARAAARAAARAAARAAARAAARCQEwGDwV40clXKK7dupteSU7vRVhAAARAAARAIKgLJyRll3n311slXBsfGrF2WOjop0Vo6qBqIxoAACIBAgBBQBYicEFOyBBwZGo0y3WzUlpn3h+HLnyYmLdkXZXxCsuJCMBAAARAIUgIw6EGqWB82y8F1ORw2tcNhD7t0Vtn+10mps38cH7/o0nlzCx/KgapAAARAQNYEYNBlrX6PNF75/6U4VDa7RW212osc2md7ctz7CRsXzEn64mZ0em2P1IRCQAAEQAAE8iUAg47O4XECNFNX2O1WRUaGssTqJZa3fxyfvGTD6rRXLBZHiMcrQ4EgAAIgAAKZBGDQ0RG8RiDLsNvCbkUrGs/5LeWHrz+OW39wn7FXhtWOfuc16igYBEBArgTwYJWr5j3X7sw99PxfDjLq6bTHrgi9cNbe6afxiX/Pmpo09dKFdOyve04HKAkEQAAEMENHH/AVATLsjgyFw64sFrXV8eJP45MWzZ+d/FVaakZxX0mAekAABEAgmAlghh7M2vVN21zM0O8VwqFwKGw2syoxQVFj7TLLmE/eiovaGml43miwhflGXNQCAiAAAsFJAAY9OPUq+VbxoTl66+JuKxv+/kvqr1N/SJp75ICxu+QFh4AgAAIgIFECMOgSVYxcxMpchnfYdMcPKftO/T513m8/JcxEGFm5aB/tBAEQ8CQBGHRP0kRZbhOw2UwKk9FRYucW2/BP347bsXpJylvxcdaKbheIjCAAAiAgMwIw6DJTuJSbSzP1zBPxRqOywoI5pomTJyYv2b7JMMRmc6CfSllxkA0EQEASBPCglIQaIEROAln+6xnaKxcUbWb9kvrb9+Pil50/Y2kDSiAAAiAAAvkTgEFH75AsAQojSyfiHSEnjth7Txgbv2bOb4nf3rhmqSdZgSEYCIAACPiRAAy6H+GjatcEnGFkremKkhvXZLz104TkZasWp75Nbm5FXOdGChAAARCQDwEYdPnoOqBbyv7rtL+uio1R1l8wJ238hLEJmw/uNfZOt9h0Ad0wCA8CIAACHiIAg+4hkCjGNwSywsg6dFcvOVpN+iph4fQfk2efPWVq55vaUQsIgAAISJcADLp0dQPJ8iXAYWSt9K0y5MAexzOTv05ZPG9W0sTkxIwygAYCIAACciUAgy5XzQdJuymMrCI1WVlh3QoKI/v2najNa9NGUHz4iCBpHpoBAiAAAoIJwKALRoWEUiWQFUbWpk6IV9aZPd34y+SJSYv37zb0kaq8kAsEQAAEvEEABt0bVFGmHwjQsbnMwDRW3dmTykd//SHt72k/xM+6cS29vh+EQZUgAAIg4HMCMOg+R44KvU3AZjcr0tMdEbu324Z99k7cjiXzksfG3U5HGFlvg0f5IAACfiUAg+5X/KjcWwSyZ+tKi1lZetnC9HHff5m0ZuPa1JctloxQb9WJckEABEDAnwRg0P1JH3V7nUBWYJp0RfQ1ZdM509OmTPoqcenJo6YH7XaH0uuVowIQAAEQ8CEBjQ/rQlUg4DcCbNSVSpX29DFFt7OnEjq06xi64MZVy/eVq+lP+00oVAwCIAACHiSAGboHYaIoaRPg2bqNDLs1XRkRtcU+/Psvk1cvnpf0scFgKyZtySEdCIAACLgmAIPumhFSBB0BBxl2iyL+jqLGsgWmz798P27bru3GgRRGVh90TUWDQAAEZEMABl02qkZDcxNg/3UKI6uMvq5sOu37pDmTv05aePqEuSNIgQAIgEAgEoBBD0StQWYPEuBLXzINu+74IcfjP05IXvL3zKRvbsdaq3mwEhQFAiAAAl4nAIPudcSoIFAI8DK8KU1ROnKV9e1x78VvXbM0dTSFkcU1rYGiQMgJAjInAIMu8w6A5t9LwO7I4Bm7KilRWf2fP83ff/N54vq9UcYnbDaHGqxAAARAQMoEYNClrB3I5icCHEaWDXu6+soFRbtpPyT98ct3CX9fuWhp6ieBUC0IgAAIuCQAg+4SERLImQD7r9syVEUP7nY8/eWHcZHzZiVPTIizIoysnDsF2g4CEiUAgy5RxUAs6RDgMLK8v24xq8quX2F9e8LHSRs2rEl9xZBmw/66dNQESUBA9gRg0GXfBQBAKIGswDQWTWyMo+GcX1MmTfoqYfmRA6budrsdYWSFQkQ6EAABrxGAQfcaWhQcrATYzU2hVIWcO618aNJX8fN/+yl5emJiRqlgbS/aBQIgEBgEYNADQ0+QUmIEsi59sShsNlXxPTuUzx8/ZO4qMREhDgiAgMwIwKDLTOForqcJZAamsapUCiy7exotygMBEBBFAAZdFC4kBoE8CfDvCAYdnQMEQMCvBGDQ/YoflQcRARj0IFImmgICgUgABj0QtSYtmWHIFApHfipJS7UVXzw3+f2jB4yP2Gx2/N6k1Xf9Lo3VatNu2RLdf/r0k1/4XRgIEPAENAHfAjQABCRNQKk4cczcc9kC46cdu1pmX71kmVqtpv64pEWGcD4hcOJEfNvx44+M2ro1tl/jxkX3+qRSVBLUBGDQg1q9aJyPCPAMPZ9ZusOu0Sjp0JxWE7XF9tzp40ldli5ImflIz/AZEUXUST6SD9VIiMCdO8aKS5deeeWTTw4+m5Rkr6BUqpVarcogIREhSoASgEEPUMVBbEkRKMCgK+xZkjqUNnu6Nj5OW3vJPNO4XduMg3dvN4xv1ipkdWiYGg9zSanTO8IYDNaIjRtvDHr99ah3bt3i63n5zgByfFTpvVMhSpUdARh02akcDfYTgczb2jKD0iiU+thoTdOp36f81aiZedOp4+aJDRuHbPeTXKjWBwSiomJ6jR174LUjRxI6UnUhHMcge1GHz1XkewbDB6KhiiAiAIMeRMpEU/xKIL+Hch6HBsl33cGGXaE7ddTR4/KFpBa/T01Y1OepIl+XLqu97tdWoHKPErh8OaXB/PkX3vzyy8N9LRZVab4XgEd0OSrhgR5/iAOTHiUvz8Jg0OWpd7RaIgT40hdDmqbc9g32kQf33Hls7fLUH9p3Cp1brIQmQSIiQgw3CMTFmcqvWHH1ZVpef9VgUJahGbmSr+TN58UGHt4ibnBGlnsJwKCjR4BA4QkU6mHMD3ob3dGamqyuPv8P83e7tpqH7I0yTGzRJnSFVqPK1woUXmyU4GkCZrNVv3Xrzf5jxux959o18300I1dnLa+7fBWqD7ksHQlkQQAGXRZqRiMDgQAvx9Jbd/WyrvWvP6TMbtrKtObiOfN3teqGHAgE+eUu49GjcQ989NGBD44cievkcGgiss5L4AUCviMAg+471qgpeAl4dHZlt6eTYVcXObTXPvDogYRu/8xOnvrgo6G/l6+ouxS8CAO3ZZcvJzdctOjya++8s2dgRoamhMOhJP2JNuYe7UOBSxOSF4YADHph6CEvCLgm4NYJ5uzZOhkGZfG1yzI+3L87qf+GNWmT2nUMmRdRRJPsulqk8DaB+HhTufXrbwx95519ryck2Crb7azqdG9Xi/JBIF8CMOjoHCDgGQJemWE5HA6FzWFW3InV1pkzPeWn3VuNgw7vN05o0iJ0nVqtFLQ565nmoRQnAQ7hu2lT9NMffLBv9Llzqc2VSqU2+/R6YSB5pf8URiDkDTwCMOiBpzNILEMCvB+rVKq0F84pH5j0VeKS+zuYF129bPm6Wg2EkfVldzh2LL7DZ58dfH3HjpjeZMdDs4LDYFzlSx2grvwJwKCjd4BAgBBgw+Fw8JKuUr8/yj749InELgvmJM2iMLJTS5bW3gyQZgSkmNevp9ZevvzKyx9+eOAFo9FRkhvhxj55QLYdQgcOARj0wNEVJAWBbAK0DE/+66lJmgqrF1s+2hdl7r9tg2Fi244h8/UhajMweY4AhWsNX7Xq6st04G3U7du2GuxiiBm55/iiJM8SgEH3LE+UBgI+I2DPDFSipP11Td2ZP6f+FrXNPPj4EeOExs3CNvlMiCCtiK411ezff+fRd97Z++Hp0yltaT5O/uSZUd7wAgHJEoBBl6xqIBgICCFAYWSz/J01Z06ou148m9xq5pSE+d0eD59SpZr+lJASkOZeAqdOJbQeP/7wGzt23Oplt6uLFhDhzVPocCDOUyRlXg4Musw7AJofPATYfz09XV1sxyb7y4f2JT6+bEHKlC7dw34tWkyTFDyt9F5LKFxruYULL7717rt7nzMaVeXIwcCX++Qw6t5TrWxKhkGXjarRUC8SkMzDmJeFbQ6bMjVFXXHp/PQJ+3dZBkZtM37Tqm3oUr1eif31PDpBWlp6kS1bbg58443d79y8aalDDCnuuujAMIXpXpLpP4VpBPL6nwAMuv91AAmCm4BfHtbZhl1x/aqm2a+Tkv5o2sL4DF3T+h2uab23s+3adavn2LH7R9O1pp2USjVda4rQ+cH9cwzu1sGgB7d+fdE6tyKh+UIwH9eRn+H2Kx+7PYP91/XHDyl6nzmZ0PHP6Ulzuj8e/mO5CtrLPuYjqeouXkxuNG/ehXfJp/zxjAx1MRYOxlxSKoIwbhCAQXcDGrKAQCARYDcrm8OisJtVxTettb5+eH9C79VLU6d06Bz6d/GSmjuB1JbCynrrlqHK+vXXKVzr3pFJSfZKWb79OL1eWK7ILw0CMOjS0AOkAAGvE3AGpkm4o6nxzx+p3+7ebhx0YI9xXKu2YSu8XrmfK7DZbKoNG6KfpeX1Ny5eNDaj+Tjtk8OQ+1ktqN7DBFQeLg/FgQAISJxAlv+6Qn3tsrrV5ImJ838YF7/o8kVLU4mL7bZ4fK3pe+/tW/3NN8emX7pkbJ516A3G3G2gyChZApihS1Y1EAwEvEeAIpArHBRtjgLThB05aH/yzKmEjvP+SPr9wUfCZlWsrLvgvZp9V/K5c4lNV6++NoLc0J61WlXFs25Dw6E332kANfmaAAy6r4kHX31+PfQVfDh93SIOTJOuMBnVZdctT3//4J70/hvXpH7XqWvEbJ1eyRY/4F4UrjVixYorI8eOPTgqLs5WNcuQ+9QNLeCYQeDgIACDHhx6RCtAoFAEsu5ftyspjGztOdMNU6O2WIYe2mcY37RlGF/TGhDr0yZTRsj+/bHd//e/neOuXjU2pNUHFU6uF6pbIHOAEYBBDzCFSVBczNAlqBT3RLobRlZ18byy/Y/jk/5t39my8MJZ8y+164Xsd69M3+Q6dOjOQ+PHHxrJ4VqVSk0o9sh9wx21SIsADLq09AFpgo+AXwLLFBZjtv966O7tjueOH07pvnhe8tRHe4b/XKS4JqGwZXsyP7uhLVp0+c1PPjnA4VrpWlMl/Mk9CRhlBRQBGPSAUpckhQ1Ig+VhkkG5SpHpv24zK1KTNeVWLEz/bDfd5rZtY9r4lm1ClkQU0aR6mKGo4pKSzCU2brwx5LXXosbEx9uqZG0ZYJ9cFEQkDjoCMOhBp1I0yE8EgtKoM8tMNzeHQhl7S113xuSUmbubGZ8+ccT0baNmoZv9wXrz5hsDPvvs0CvHjiV1okEHXWtq94cYqBMEJEcABl1yKgk4gTBDDziVuSdw1r60UnP6mLr7xXNJbX77KXHxY0+Ef1upiu6ceyWKy0VuaM3++efSuxMnHu1N4VojeFsALxAAgf8nAIOO3lAoAna7Qmu3KdRUSDq9dYUqLLAzy2Rg41DY7GaF2aQusXNLxogjB+J7LFuQPKVj17A5pUprY7yhwuhoQ41Vq66MeOutPS8ZjYrSDrrX1OHg7oYXCIBATgIw6OgPhSIQFqZMrVVPt/lmdEY1lVJro+XZUF6fxSu4CWTtWdsUdE1rpcXzTF8e2md9YueWtMkPPBQx11Mtt1hsunXrrg0bO3bfqKtXzY3sdhsNmrC87im+KCf4CMCgB59OfdoivV5joQfve/UamfasX2F49dplVQu63SvcbscBJZ8qwk+VOZfhr15U3E/76zMmfhI3uN/TEeNq19PuUavVbo3srFab8ujR+C5jxuwee/JkUjuKUqtHf/KTglFtQBGAQQ8odUlTWL1ezRHF/klOyojcst4wfEukeXhSQmhVOiGtpdm6HPqYTJbb8+t/vAxvoWtalaGnjtl7nD2Z0P7BR0Ln3LiWPrVyVd0ZMb32zJnEFt9/f+zl9etvDKb7yWlgiChvYvghrbwJyOFhK28N+7D1xbJ8lL+9dtmyJnK16aXtG+2DlQp9CVqGp4hdWCr1oSr8UlXW3raV3qpim9fZXjtxNLnb6iUp0x/uETZNH6oxFSRUSoql+KJFl9745JODz8fFZVSlouBP7hctotJAJgCDHsjak6jsVWvoT9J1lW+276xftGR+2tizJx3t1SpduM2eLvOZrEQV5mGxnPevx8bo6i740zh+17b0IefPWF6sU19/IK+q9u+/3XXkyJ3Tbt4010FgGA8rA8XJigAMuqzU7bvG0v4pT8l30P563x2bTM9uXmd8+eb10Ca0NKvFbN13evBnTXzpCxlofcyNsGZnTlra03/yNOh79tzqFhNjrYNwrf7UFuoOBgIw6MGgRQm3gfbXeal1xp1Y6/ptG83Prl9peiXdrCtnd9h0QfYAd+sAmIRV5yHReBk+I12lyr84tVplxyDPQ7hRjKwJwKDLWv2+a3yZctprVNv4mOj0Bf/+nfLp4f2O3vYMfXE+TIVX0BPgrRZstwS9mtFAfxOAQfe3BmRWf4VKuovU5KF7o4xPbFpjfOXsSV1Hmq2HBMFsHQYr/77MbLCCIbPfOprrewIw6L5njhqJQJsOYUvSUm2bdm03DlyzNO3NhDhtHVqbVWfGDcdLbgRg7OWmcbTXKwRg0L2CFYUKIRBRRJ1M6X5LjLeuWE1Gfdc2y2BDqr4MnYanELJ4xgthiDQgAAIg4CQAg46+4HcCJUppb5EQ7506blq1ea1x+J6djidUKm2RrMs3YNj9riAIAAIgEBAEYNADQk3yELJh49Ad6RbHntYdTMuX/pP6QfQ15X1KpTYsy/0JryAmgFFbECsXTfMdARh037FGTQII6PRKDgK/1GSyRW5YZXhlxybL8DuxYfUybCZyfMJzXwBCJAEBEJApARh0mSpe6s0ODVUbSMbvKR746s3rTC9sjXQMzcjQlSWfZqVEfZbzO+WO0+9S72yQDwSChAAMepAoMlibkX25x7vnz1r+XTgn5atzpxQPKBz6UPivB6vGZdsuLD/JVvWeazgMuudYoiQvEqhTT7+fwol1277RMGzLetNLVy6EtLI70jUSna17kQSKBgEQAIG8CcCgo2cEDAGVUsmzmD/i46zroraaBq1eYnnbZNRV4KA0QRCYJmD04Kag2HpwExyygYBQAjDoQkkhnWQIlCqtjeH99ejr6atWLkp758AeWz+rJYTDyOLgnGS0BEFAAAR8TQAG3dfEUZ/HCFSqojtLhY04uMe4fMt64/Cjh1TdlXS7F6LNeQyxpwrC7NxTJFEOCBRAAAYd3SPgCbRsG7bSkGbbtnuHceDaZYbRd2K19WgNXgPDHvCqRQNAAAREEIBBFwELSaVLIDxCnULSzUhKyFixdkXaa1FbzUNTk0Iq0zI8zQ79eoAYs9OsbgMO0v35QLIgIQCDHiSKRDOyCBQvqYmlP2MvnLUsj6TANLt3OJ5UKrQRFEZW7UXD7tcRA3QPAiAAAkwABh39ICgJ1CY3N4vZdqRdp5B/l8xP+/TKRWUzCiMbgjCyQaluNAoEQAAGHX0gmAnoQ9QcRnad1WrbvHGN8eWtkabht26GNrTbLFqHwh7MTQ+0tmE5PtA0BnklSQAzdEmqBUJ5koBWq+bbXabExqSvilxtfGnzOvsIW4auNIWRpbNzHjHsMEieVBjKAgEQcIsADLpb2JApEAmUq6C7THJ/cOlC+r9L56d8cPywspvDro+g+9c9cXAORr3gTgE+BfPBOYxAfKhITGYYdIkpBOJ4n0DN2rpDVEv/XdsMA9avMIy+fFHbiiLN6RBtzvvsUQMIgID3CMCge48tSpY4gfadwxcmxmds37HFMGj9SuPI1GRdVTcNO2afEtc1xAMBORCAQZeDltHGfAmUKKW5RV/+EBtjXbp6adroPdszBlrMIeX5NLzIg3Mw6vn3M7DBbxAEfEAABt0HkFGF9AmUq6Dl/fU3ThwxrVi73PC/Y4fsj6iU7L9uFWKMsP9ZOBULYVy4GqSdm/sP+pC0dRQQ0sGgB4SaIKSvCDRqFrrZaLDtPbDH1JfCyL4RfV3brJBhZPGg9pXyUA8IyJwADLrMOwCa/18CYeFqA306Ny3VtnodhZHdvtH4XHJSaA073eaWj5sb+77BcBfcmeQ+Cy+IDmboeBB5hAAMukcwopBgJBBRRJ1E7Rp39bJl2dplaa/v3Wl/0m7T0TWt7OZ2z8sGgx6MPQBtAoHAIgCDHlj6grR+IFCthv64zWZ/uV1ny7+rlxhHnz6u7qhUqnQUH15PE/MMEskj0Wn80DRUCQIgEEQEYNCDSJloivcIqNUqNtqRVqtj8+a1acM3rjG8cPuWrgFd0cqf8zu/JWUsxXtPLcFUMvpJMGnTT22BQfcTeFQbmAS0WiXPyKffibWu2hppHLJhjfV5q0VX3eFQqPJpER7UrlUt9/119BHXfQQpBBCAQRcACUlAIDeBMuW00fTZxMsXLatX/mv8SK3WmGDQ0U8KQQBGvRDwkDWLAAw6egIIFIJAjVr645T9aYvFlt8MvRClI6tMCOAMhkwU7e1m4iHkbcIoXxYE9Ho1Hsqy0LRXGonZuVewyq9QGHT56RwtBgEQkB4BuZ8jkJ5GAlAiGPQAVBpEDiQCSkVGhkKnzPcQfCC1BbJ6gQDFMFCqrVa72gtlo0iZEYBBl5nC0VzfEogoojK0bKNfqNFZY9UqvZX8130rgDRqw5JyHnqgvmBVqbS20FB73MMPV14gDVVBikAmgENxgaw9yB4QBHo9UWzKtSuWTf/+lfrJ8SOKng6bvghFmyPZYeeyFSiz5Walgwy5XadzJHfoUGbl0KF1J1SrVvR8QHRmCClpAjDoklYPhAsWAlWr60/Z7Y5ndm83DIhcbRx1+by2rcORocknNnywNBvtyEVAqVTbHQ6boUmTojufeqrGtAceqLDy44+BCQQ8QwAG3TMcUQoIuCSgUil5Sr4gId66de9Oc/9Vi9PGpKXqq1EIWbrQjcPB4xWsBMiQK2iJ3VaunPb8oEG1v+3YscLi4sX1ycHaXrTLPwRg0P3DHbXKmEDJUtpYav7Pt2OtK9YsNby9a1vGsxaTvqSdluEdWIYPsp6houV1jb1oUUV0166VFw4ZUntC8eIhCUHWSDRHIgRg0CWiCIghPwJly2mvUatHHztkWkWx4Uce3ufoSQ9/Pc/Y8Qp4AnalUqPQaOyJ7duXWjtwYK2fGjYseeC11wK+XWiAhAnAoEtYORBNHgSatAjdYDLZdh7Zb+m14t/U96Ova5vTgTklDHtA6t9Bhpy2Vuym+vWL7Bs8uPYPLVuWiQwN1fApSLxAwKsEYNC9iheFg4AwAqGhao4F/29KcsbmjWuMr2zdYHwpJTG0qs1uof11BKETRtG/qWiPnIy5OqNcOf2Vfv2qTunVq+rvYWE6o3+lQu1yIgCDLidto60+J2Ax2UKOHrY8Wr2m9ljZ8torrgQoWkwTT2m+unIxnZbh017aucU+xGHXkZublT6Gm5srfv75XmlXqdS2kBBFfM+elf/s3bv679WqFYEbmn+UIetaYdBlrX403tsE0jMUYetXpr2VlOAov21j2oS2HUMW6vX53sx2V5zqtXRHbTbHqHadQxcuX2j4+PQx5YNKlVbNB+fwkgoB9ifX0F653dCiRYnNzz1Xd2KjRqX2jholFfkgh9wIwKDLTeNor08JUMQUeuAr7Al39LVnTE75KWqredCJw6av6zXSbddq1QWeflOrM93ctmVk2KK2bTIP27AybVTMjZCmdocVbm4+1eJ/K2N/cvrUXLNm2LFnnqk16cEHKyxSq3FBj5/VIvvqYdBl3wUAwNsEyKA77HYrxep2RJw54Xjw8vmkxq3a65dFX0//qVIV3VlX9Ws0mYZ/5u1b1g3bNhhf2Lw+/WWjQV+OysT+uit4Hv4+e5/cUby46uqTT9b4pXv3Kn+WKhUa5+FqUBwIuEUABt0tbMgEAoIJ5DzRxkvmarNZXTpqi/3544fjui6enzKre+/waeER6hRXJdIe/FVK8+mVi5YlKxcbPji0V9HHbtOHwH/dFTlPfK9UcLhWrdaW0LFj2RW0vD6+SpUiFz1RMsoAAU8RgEH3FEmUAwICCVBUOC2/kxM1tZcvsHx+YLe5/47Nad+3ahuyLDRMyP66/ihV9fT+XYa+61cZR587qepEN3apKJSsQAmQTAQBdkOjlZAM2icvtpmW139s2bLslrFjRZSApCDgIwIw6D4CjWpAIDcBMhJkhBX66GvaFjMmJ0/bs9PU79xp87d1G4TsF0KrdfvwZSnJ1m37oswDVi0xvJ0Yp69jJ6OOMLJC6LlOw6Fa+Ua0atVCjw8YUGty584VFoWFac2ucyIFCPiHAAy6f7ijVvkQcHmTGO2FK8lwFDtxWNX33KmE9rN+SVrYe0D4D2XKaG+4wlS0mDaR0kyPjbFGblidNmr7pvRhmWFkMw/OScZ/PaD87bL3ySlcq/Jm797Vfuvbt/qv2Cd31RPxvRQIwKBLQQuQQfYE2PjabGat2aSquHVDxv8OH0jotXZF6o8dOofOI9/0JFeAylXQXqY0b585aV6yfpVh9BEKI2uzacP54BxeggmQP7nGptcrEzt1Kre0f/+aU2rXLn5y+HDB+ZEQBPxKAAbdr/hRuQwIiJqdkmFXOhwWXVKCps6831O/3bPd9OzBPcYJLduGrRTCqv59IVEWi+3g0YPmHssXGMZev6prQWfsFbwUj1d+BJQc4Y31ZG7QoOjuoUPrfNOiRemN5FYomSUO6A4EhBCAQRdCCWlAwMcEsg64KcOuXFC1+/nblL8nfRW/vu/AIhNq1NYddiWKXq/mfd6lRoN946a1aSM3rTW8lBQfUssG//X/oMv2J0+na02vPvtsnW+6dKn0D+2TI1yrq06G7yVJAAZdkmqBUCDABBwKjuVutyuLHt5vf/LU8fiO82cnzejSLXwWLbFfccUoLFyVSmm+iYlOX7JmWdpbu7bZB2ek64tymXhxuFaNo1gx1Y1u3SrN6du3xvTy5cOjwQUEApkADHogaw+yBwIBUUvueTWI70h32NNVZpO6/Nql1vcP74vvQwfgfun0cOhfNBvnS10KfFWopLtACV49fcI0f8VCw9gTR1VdaGaqybrNrdDiuapeYt9nGnK7w2E1tGtXat3QobUn1qtX8sgrr0hMTIgDAm4QgEF3AxqygIA/CLA7mkNh1966qWky57fUyVHbjEMP7TNOaNw8dL1Wq3S5Sd6gUegOq9Xx2L4o04CVi1PevXlN0zRzsCCP/XX2J6c9cUd6vXrhe4cMqfttmzZl16nVKuyT+6Mzo06vEIBB9wpWFAoC3iJAJj3z5LpSf+mcosPkrxP/bvuAafHlC5YpNWpnBpwp8JVt+OclJWZs3BppHBG5yjjKkKqvEMTR5mgJIvMSFSvtk1/s3bvqjD59avwWHo59cld9Bd8HHgEY9MDTGSQGgcyl8qxY7qrie7Yrnz95NOHB+X8k/9P7qYjvIoqok1whKl5Cc5vSjL9yKX1V5ErD67u2OZ6x2/VhtBQtJf91V80o8HvyJ6eLcdQUrtWe0K1bxb8HDqw9uVKlcA6fixcIBCUBGPSgVCsaJSECLgPLFEZW9l/PsJlUFEa21trlljH7d5se37oh7fv724csCgvXGFyVXb2m7hilGXH8sGn+qsWG908ds3emmOXaAPdft1EbHHT5WWqrViU2Pvts3e/uu6/kvrfeckUD34NAYBOAQQ9s/UF6EMgkkOlnTmFk78RqGs+ckjJt/y7LE2Skp9D++kYhiCjdJpMhYzf5vT+zbpXpjVvR+kYejDbn1UFNjvZRqNZMf3JrrVphhykwzC8PPVRpgVarsglhgDQgEOgEYNADXYOQHwRyEMj2Xw89eUT5+LnTyR1+nZSwvO+AiPHlK+lc3gwWGq5h/+vf79xOX7d5nemVrZHWF+ia1op8Gl7i8eE5MAyNaJT2EiXUMdnXms5GuFb8NORGAAZdbhpHe2VAwMHL8AqbSV1q1zbb88cOxz9Mp9ont6cwsqVKa2NcAShTVsf+2B/TNa2LVi9Ne/vgHns/W4Y+QqL+6xm8vB4aqox76KHyCwcMqDmlatWiLgcvrhjgexAIRAIw6IGoNcgMAgIIZLq5OWzK1GR11YVzTOMP7Lb2j9pq+Kld57B/VEqlSwf06rX0R61W2/NHO6QvXrPc8PaFM7oHuLysS19cZs8poReW3JV84I2FsLRoUWLTwIE1JrduXW7TmDECwCAJCAQpARj0IFUsmgUCTgJZy+VK3ZWLmjYzJqf8tn2Tcej5M+ZPa9bR7lerM41ivi+KZ86ZlxvSMjZHbTUPXbs8bXRCnK6O3c6DBZeu795QAhlyDQ0QHNZKlfTnn3uu7vgOHcovR7hWb6BGmYFGAAY90DQGeUHALQIURtZmVpArV8Tp44ru33ya0OKBLqF/R19Pn1apSmYkuQJf4REaDiP7S+wt6+rIFWmjorZnDDIZQspRmSpXeXk0ISCNkCS0vK6zlyypjunZs/LMJ5+sOaVYMX2ykIxIAwJyIACDLgcto40gkE2Al8sdjnSF2awqu3md/c0TRxK7r16S+ttD3cJmhYWr2WgX+CpXPjOG/Jizp8xL1q0wvX5gt+pxWvoO9W4Y2azb0MhH3ty1a9n5dOhtWv36JQ6/8IIrafE9CMiLAAy6vPSN1oJAJoHs+9eVsTHahv/8mfb1np3mZw7vM33RsIlukz5E7fL2lnoNQ3bR/vreY4f0PRbNTf00+qqqiUJJ0+e8718XsuHOG/O5Z/sU4U1Lhtxmbty46M6hQ+t+3bRpyS1arUZIedA0CMiOAAy67FSOBoPA/xNwhpG9esnRZtL4hAWt24euoNn3L2ywXXHK3l9flZpq27kt0jhs0zrjyIS4kLo2G48H7rG5QuKl5zLSmeFabVWqhJx6/PEqvz3+eI3pVJ9fNu1dccD3ICAVAjDoUtEE5AABvxG4Gx8+4uBuxaCzJ1M6UxjZv3r2Df++WAlNnCuximSFmv3xxtX09ZvWmkZs3WgeYs/QFadgN5qsE/EKIYFdMk/u0R4/GXaVQq93JPbpU5UMefWZFK71sisZ8D0IgIBCAYOOXgACIJBNIMt/PSVJU4nDyO7abnySwsiOb9U2dBHFh09zhalyNd1pSvP2+dPmBYvnp409c8LR2WHXq+kzfrt6KWl5PUOrVaS1bl1q/Qsv1PuqZs1iJ0eOdJUN34MACDgJwKCjL4AACNxDIDuMrCYpQV1n1s+Gqbu3WwYe2GOc2qpt2EohqOo0CNlnsdieojCy/TetM71485q+Mx/Ey+9ltzvILV6lbdAgfAuFa/2Z3NCW0vI69smFwEYaEMhBAAYd3QEEQCBPAln3rytCz5zQdr94NqX11O8SVvR9OmJixcq6c66Q6fVqtuBzE+MzNq5dYXwjoogqNr885cqFXXrxxVpvPPpo5XkUrvWOq7LxPQiAQN4EPOUfCr4gAAJ5EEhLtRX9aWL80nMnlV1s9vxnqVKHR25jChXFS9eHWWMf7RU+rXPXsD/KlNPelLrckA8E5ERASFAIOfFAW0EABPIgwLN1GpBoTGnKSisWWj/7aWLKik3r0oaT65oWwEAABKRBAAZdGnqAFCAQEAToPLzCbrdorl92tPxzeupP332esOzUMVMnm82O1b6A0CCEDGYC2EMPZu2ibSDgJQJ88xodZAs/fULR49yZhPvbdw5beP2KZWqV6vqTXqoSxYIACLgggBk6uggIgIBbBNjH3G5PV1rTlaV3bra/9OOEpH+XL0x5ly5yKepWgcgEAiBQKAIw6IXCh8wgAAIcFY4uadHciVU2WDTXOO6L9+M2791pfJJc10JABwRAwHcEYNB9xxo1gUBQE+AwsjRr18XcULX8+Zuk2VO/T/nr1HFTp6BuNBoHAhIiAIMuIWVAFBAIfAJZYWQdCkfEkf32vj9/k/Lnn9MTJ8XdzqgS+G1DC0BA2gRg0KWtH0gHAgFLgJfh01IUVbdF6kZRpLneAdsQCA4CAUIABj1AFAUxQSAQCVAYWRUtw9szMhShgSg/ZAaBQCIAgx5I2oKsIBCQBDhW+733qQZkMyA0CEicAAy6xBUE8UAgCAjgopUgUCKaIH0CMOjS1xEkBAEQAAEQAAGXBGDQXSJCAhAAARAAARCQPgEYdOnrCBKCAAiAAAiAgEsCMOguESEBCIAACIAACEifAAy69HUECUEABEAABEDAJQEYdJeIkAAEQAAEQAAEpE8ABl36OoKEIAACIAACIOCSAAy6S0RIAAIgAAIgAALSJwCDLn0dQUIQAAEQAAEQcEkABt0lIiQAARAAARAAAekTgEGXvo4gIQiAAAiAAAi4JACD7hIREoAACIAACICA9AnAoEtfR5AQBEAABEAABFwSgEF3iQgJQAAECklAWcj8yA4CICCAAAy6AEhIAgIgAAIgAAJSJwCDLnUNQT4QAAEQAAEQEEAABl0AJCQBARAAARAAAakTgEGXuoYgHwiAAAiAAAgIIACDLgASkoAACIAACICA1AnAoEtdQ5APBEAABEAABAQQgEEXAAlJQAAEQAAEQEDqBGDQpa4hyAcCIAACIAACAgjAoAuAhCQgAAIgAAIgIHUCMOhS1xDkAwEQAAEQAAEBBGDQBUBCEhAAARAAARCQOgEYdKlrCPIFOgFHoDcA8oMACAQGARj0wNATpAQBEAABEACBAgnAoKODgAAIgAAIgEAQEIBBDwIlogmSJoAld0mrB8KBQPAQgEEPHl2iJSAAAiAAAjImAIMuY+Wj6T4hoPRJLagEBEBA9gRg0GXfBQDAywRg0BUKbDt4uZOheBBgAjDo6Acg4FUCSqXNptAqFUq7V6tB4SAAArInAIMu+y4AAN4koFY7MipX1RyxK+wmlVIDo+5N2CgbBGROQCPz9qP5IOBVAqFhakNqasbHVaqbjq9cZHgjKUFXw+Gw6eit9mrFKBwEQEB2BGDQZadyNNjXBIoU0SRTnTPu3LauXbfC8OqOTRlDLOaQCnZ7utrhkMWkHXvovu50qE+WBGDQZal2NNofBMqU1d6gej88f9ayZM2S1DcO7bd3d9h1xciw43foD4WgThAIMgJ4kASZQtEc6ROoU09/ICPDPuzAHvPjq5cYxly9pG2ucDhC7I4M6QsPCUEABCRLAAZdsqqBYMFMQKNRsfVeYkjL2LhlvemFyNVpI5MTdNXsDpue9teDueloGwiAgJcIwKB7CSyKBQEhBMIjNCmU7sebN9JXr1uR9tqeHRkDLGZ9WZvNAv91IQCRBgRA4C4BGHR0BhCQAIGKlXXnSYzXjx8xLV9PB+eOHFB2U6m0YXa7lQw7zpRJQEUQAQQkTwAGXfIqgoByItC4WeimDKt9++7txgHrVhhHX7+iaaZQOrR2O/bX5dQP0FYQcIcADLo71JAHBLxIQKNVWan4uYkJGRs3r0t7cesGy/CURH0lmz1dG6CzdSwxeLG/oGgQcBKAQUdfAAGJEihRUhNLon159bJl+fqVxv9FbbEPVDhCitsdVjoULwv/dYlqBmKBgDQJwKBLUy+QCgTuEqhWQ3+c/vPK0YOmJSsWpn509rSttUqlDyX/dVACARAAgbsEYNDRGUAgQAg0bRkaaTLaonbvMD2zfqVp9K0bIQ3sDtlEmwsQLUFMEPAfARh0/7FHzSAgmgDHhqdMM+PvWNduXm8csX6VZaTVrC9Dy/AqLMOLxokMIBBUBGDQg0qdaIxcCJQqo42mtn5+6bx55eqlhjcP7VP0tmfoi9nsFikigE+9FLUCmYKOAAx60KkUDZITgZp1Qg7Z7fah+3eZn9i4xjjy7CntAw6HIzvaHA6Xy6kvoK0gAIOOPgACAU5ApVKx5V5sMNg27NpqfGbl4rQxSfGaGuTipkZ8+ABXLsQHAREEYNBFwEJSEJAygfBwNYeRnR4bY42k2fqrUdvMgwwp+vK0DK/ys9xYKvCzAlC9PAjAoMtDz2iljAiUq6C9TM1958wpy7I1S9Jof13ZQ6XSUBhZjjYH2yqjroCmyowADLrMFI7myodA/Yb6KIvZduDoQXOPxfNSP46+rmioUulC4L8unz6AlsqLAAy6vPSN1sqMgD5EzcfelxnS7Fs2rUt9cduG9BfjbofUpNvc6LeP2brMugOaG+QEYNCDXMFoHggwgfAIVTL9+e7GtfRVkauMr26JtA9RKfTF6NCcEv7r6CMgEBwEYNCDQ49oBQgIIlC5qu4MJXz9zEnzgqX/pI49c0LRWaHQh9KMXVB+JAIBEJAuARh06eoGkoGA1wjUvy8kymq19d61zTR401rzyKsX9S0o2pyGZusIAuM16igYBLxLAAbdu3xROghIloBWq+Zj73/Gx1k3bIs0Dl23Mn2UxaQrb3fY1A6HTbJyQzAQAIG8CcCgo2eAgMwJlCqtvUkIJkZfS1/GQWkO7rH1SU8PKW2zmT1FBrN+T5FEOSBQAAEYdHQPEACBTAKVsvbXRxzca1wWudL02sljyo4qpTqUZuz0MU7Eo5uAgNQJwKBLXUOQDwR8TKBlm7BVaam2HfuiTE/yjD3+troWiaArRBhZzNB9rENUJ08CMOjy1DtaDQIFEogoomY3t1kJ8da1G1YZR+7YbB6WmhJSmU7Dk3HGbB3dBwSkSAAGXYpagUwgIBECJUtpY0iUT86eNrNhf3nvTkdfpVJbhMLIUnx4GHaJqAligEAmARh0dAQQAAGXBOo1CNmdbrHt79gldO6iv9M+v3JJ2YQMezjCyLpEhwQg4DMCMOg+Q42KQCCwCej0mW5uGywW244t640vbFpreen2rZA6tAyvpdk6vfECARDwJwEYdH/SR90gEIAE9Ho1+7NNpTCym7dtMA6OXGUf4bDrSjkUNm0+YWTtAdhMiAwCAUcABj3gVAaBQUAaBLLDyH588Zxl2bJ/0t4/fsT+iMOuD6f713M/V7DZLg2VQYogJwCDHuQKRvNAwNsEatXVH6Q6+u/YbBi8aY3plYvnNc15CZ6izenoc56d81I9XiAAAl4mAIPuZcAoHgTkQqBjl/C5FEZ2y54d5idXLU77nyFNWzF7CR4GXS6dAO30KwEYdL/iR+UgEFwEssPITrl9y7pi2T+pHxzcm/6ILSOkqsNhRnCZ4FI1WiNBAjDoElQKRAKBQCdQtrz2KrXhleOHTQ+vWmL6UKdTGQO9TZAfBEAABEAABGRNIDnZWiop0VpW1hDQeBAAARAAARAAARAAARAAARAAARAAARAAARAAARAAARAAARAAARAAARAAARAAARAAARAAARAAARAAARAAARAAARAAARAAARAAARAAARAAARAAARAAARAAARAAARAAARAAARAAARAAARAAARAAARAAARAAARAAARAAARAAARAAARAAARAAARAAARAAARAAARAAARAAARAAARAAARAAARAAARAAARAAARAAARAAARAAARAAARAAARAAARAAARAAARAAARAAARAAARAAARAAARAAARAAARAAARAAARAAARAAgUAnoAz0BnhT/oSEhOIGgyGC6wgPD08rWbJkUu76KE0JShPOnxctWjS5WLFiqd6QyWq1qnfu3NkxNDTUVK1ataulSpW6o9PpbAXVlZSUVCw1NbUIp4mIiEgtUaJEcs70JpNJn5ycXIzK1jk/VyqVDio3neuht1Gj0di90R6UCQIgAAIgAAI+I/D888//TpU5+D106NA/MzIyVLkrf+6552Y703z22Wefeku4lJSU8Pr165/muooXL56wefPmB13V9c4773zjlG3UqFFTcqZfuXLlY3369FnGZTnTZP+1V6xY8UaPHj3WJCYmFnNVB74HARAAARCQBgGNNMSQphRqtfru7FSlUvG/2bjf88r+PPMznt16sSVKqitzRm42m0PJwLs0tg6H4+4KjN1uv/vvhQsX9n/mmWdmpaWlZa4+5Hopb968WYlXJmjFwSurDV5khKJBAARAQLYEYNBFqJ6Wn71psF1JkrNuh5DBQ4UKFWIaNGhwiguuXLlyNP+Njo6u0Lt37/ecxpyX1Zs0aXK8evXqV3gAcOfOnTJXr16t2rhx4xNC6nAlNL4HARAAARDwDQEY9Hw422w25csvv3zPt7TkrhRj1Hl/PS4urpTTeNIedkKNGjWu5afa69evV6Q8JWk2rdbr9eYyZcrE0155PM3M2Zjfc97BOVvnvXU2wLQXXrx8+fIxlSpVuuUsn5bZf37xxRdn8P+pPMuHH36ouHTpUq0rV65U58+4jHHjxn0yZsyY7/fu3XtXLCpTQ8vtJXLLaTQaQy5cuFCb2KiJQwbv5dMsPi1nOpaHVg+K8uCAvkuh/fgM/v7GjRuVeFDBZdDefRjVnUE8Uvi727dvl7l161Z5zlOzZs1LRYoUuadM3/wUUAsIgAAIBDYBGHSB+uPZaj7G/D+z9iNHjjQZP378Rz179qzKB9PYgHE1bOBob/o6GdDvunbtusVZ9fHjxxtyepo5N+T0bLy1Wq2VDF5iq1at9lP+MWRE7x6AY1mojmYff/xxm27durWPiYmpQIYynAcMS5YsGffEE08s5bJnzJgx4q+//hrK/x44cOAC+jMpPT1dR289f1auXLnYRx99dH1uBFQ3G+E7zs/JuBefOHHi+927d29Hg47KZHhVbNDLli0bSwOCtTRw+IXqTuL0J06caDxy5MipnOaNN974cf369fG//vrryC+//DKWvh45b968wSTXizzAmD9//rTdu3e3e+yxx9rxwIfzV6lS5cayZct+6Nu373KBqkEyEAABEAABEMifAM/QR4wYwbPbzENxfPiNDOHdARDP1jn3sGHD/nCm+fzzzz/hz7Zt2/YAzUwtzs9z/yWjdW3Hjh3tOW1sbGypjh07bs8vbZs2bfbw/jfNesMaNmx4IjudnYxuel55aIZLk+gLNbjst9566ztnGjKyv/BndJjuIZoB88zY0bRp0yM0Y69eUD/gVQYaNKzLTz7+nAcFtAqRedJ/69atnZ1pacBwKyQkxMT/p9n5df5+7Nix45zf59cG8hRI2rdvX6uC5MJ3IAACIAAC9xLADD2fHkEH4hxk0O9+u2vXrva0BD+dPiP7ale+9NJLCjKS6Rs3buyQuwhaVr9Ehn42GX01zWIzZ7q87L5o0aKneGmZZrlVaObagz7edfLkyUbHjh1rwmnoxHlS//79/+Vldv4/HU6r2Lx588O85E4GPWc1Slra1vIHdevWPcdL3Fwu/58MdE2asVekf17Onmln5svx79wrCgWeC5g9e/YwkrUbl0HG2UzGO5IGFqd46X3FihWP84w/MjLy0aVLl/alJHN5GZ9WEOw8Q6fBSjmn0LQnf5yW3RU0s7c6P+M2VK1a9RqtVmzkA3gLFiwYQO2owK50NHsfROkO4AcLAiAAAiAgjAAMujBOivPnz9fht5DkZKRu0hL46LCwMHPO9O+9957h66+/fo8/O3PmTH0eGJAx5CXwTOPMxo2WpsfSzPa2M98ff/yhfPPNN/m/9+yhP/TQQ5t5qZtm2UdPnz5dnwYXv5LBrMzpaHXBY3o9cOBAS6csPEj57rvvxpBPu4G2ATSDBw/+h5b4n+TveemcDXouPg4a3Fz+4IMPJtL2wxqapd/Tjk6dOm3/5ZdfXiVjf5K/oD3+NN564H/zuQAhrJEGBEAABEAgi4DHHvzBDpSXjmkGzYFZ7s5o2WWND7GxG1nu9rMxt1gsfLgs85AbHwL7888/nT7fSnILy9xX571y52ly2n++j1YAZtK+94JGjRqdqF279nlaKTBml323XpZl9OjRP9E+8wr+jvbd75Dv+M1sg+4xVdCgRPf0009nBqbhV7t27XazMed/0+n4jOnTp0c6DTq3MXfFFIgngQ7btXWuUuT+ng/AOY05f0eHAOM8JjwKAgEQAAGZEYBBF6jwLl26bP7oo4/Gk4HN4OXkzNEQHQyjffNPV61a1St3MWSUBz/77LN9+HQ3z5jZ+PPhNUqXOdNmI84zczLcx9q3b7+blu4fZqNIAV9685uX38mA7qI972+p7q2U5Z6l8Zz+77y0n9PnXGCTBCXL6bpG8t0TWIejyTkLycvFjZf58zPmnI/LIzYqp78/n54XJBQSgQAIgAAI/IcADLrATkEuYbc6dOiwK3dymlHfdRNzfkeBW54kYz6L95cLKp4NMS2vJ9Be+ZDff/99OO2x9798+XIN3hOnWXfxtWvX9iS/8LK0r9yTjN49m+hkwHMW7ZZ/vNhBAPzSBXYWJAMBEAABPxD4TyhTP8gQEFXy7Dmv0K85Z5VOg7d9+/YHncb8wQcf3MrGmg58DaRQsrNyNTbTENNy+S1yQfvq8OHDzXlv/f3335/IB9D4O57h0yG6qrQaUFDcdsEx+dmIOw05H6BzHqbLTwk5Z+U5o81x+vj4+ExXM36JHRxwHuaVMxofr3gERGeAkCAAAiAgQQKYoeejlLwCy7DdEqJD2jvP9PPm16BBg+YNHz4805DTgbhqOfPziXA6XKamffayZNRjsgPIxNCBsGk8CKC9+ZDsQYJgg+1KPnIJS2a3NT51z+8pU6a8TgffvitdunTm/jXXSQOIatQGHS2Zr2NfeGeZ69at60F5/uV9dPIbL9GvX78nnN/xWQBXdef+ni6OieBtB3Lxy8xLh/saONM4tzXElon0IAACICBXAjDoIjQvNEocHwZzFvvDDz+8RUFdunI0tK+++uoe32oygnYyYvXI4M+mi1ciKEzrGQ64Qsv1lZyBVnifmsuj2XFuXeU08oJXWijM67G2bdvuJTezfiwju4dt2LDh0Wy/+cx9bQ6EU6dOnfO9evVaQ25rG+fMmTOEkippS+BJdrGjPf1oCnhTkyLOZfq784tXImhwIIKmQkFbCj3uu+++k3SG4DbXS4cGmzsLaNGixUGSUVR5SAwCIAACciYAg16A9nPugfOMNa+kOT93pn/44Yc3UnS0V9ifmpfQ+c152Vg7y+BobWTQbYsXL663f//+1vw5pbs7Q3Wmoyhqa2rVqnWJ9tUjePbMn/Op+pyuabyf7vyOv3cukzvd4fgzp2wcivXgwYNfko94WfKtz/Shp8FD6dxtozQtaAYdTunn07WtndgfnbYcNDnbw3n4qlUOwEMn7pc563bOrmlg8J/T/znr4YFDXu6APOggl7h5tA0h598m2g4CIAACogjAoOeDiwPLkLFdzofhOEnr1q3302z2P6lp2XmZ8+ITnqWSH7nikUce2Uh5X/j7778Hnzp16j6KDHedjNTRzp07b6cZbmMylEU5OAudbFc0a9bsMPt2U4CZhrRfXoWDzvBeMrut0SG8KJrd/8MzXzacr7322s+8583L29lXqWbKQy5yRgp0M5332vn/HGOd/1IQmA3OgDIPPPDAThpkZKZv2bLlIbqkZQAHhqH9/o5cL/2/Ii+lc0Q3bjNf2MIn6WkQkkHL7KOpTRtoyb37xYsXa/G+PvnMX+eLX8gffiuFrF3h3AvnuvkMAO+p8x3sBRllYnCyXr165zhuPNVfibcDKGreDnbdI5e2y6J6MhKDAAiAAAiAgLcI0AxUn305S2ZY1IJefKkJh0+lg2YlOdwqzfwzg814+8X10Oy/CMvJ9ZLveSjLkle99LmK09LJ+9K8/+2ObNl3xt+9Y5788UN5JYDrz45j706xyAMCIAACsieAGboXuwDtf/MS+91l9oKq4uV3+p6DtmQGbvHVi2bgfCBN0IE23vOntHxHusfuSQ8PD3f6svu03b7ii3pAAARAwFcEBB+m8pVAqEc+BJyBZeTTYrQUBEAABLxHAAbde2xRch4EnC59fA6A9tjTcvqhAxgIgAAIgID7BLDk7j475HSDAB2i28JBc/jwHLmmHXIe1HOjKGQBARAAARAAARAAARAAARAAARAAARAAARAAARAAARAAARAAARAAARAAAU8T8FiMcE8LhvJAAASkRYCiDaopTkEEx9zniIF8KyD/pSiFeufFRBRE6UapUqXi6Q6ABI5wWKNGjct0d0AqnZswUcAkdnvECwRAAARAAARAwB8E6Erf6hzPnyMCFi1aNJlkYMOcGRzIxdtORtxKEQVPDhkyZM6MGTNGcJRBf7QBdYIACIAACICAbAnQfQGqn3766fWmTZseEWC8XRn3zO8pfHA32QJFw0HAywTgtlYAYA51SheSaGk50Tkj8bI6Ciw+59WtObdK8to24TvPVRSpLvNOdbxAQCwBDsX79NNPT/v333+forwe2ZrjWP3krnhFrCxIDwIgIIwADHoBnKZPn/5KZGRkNwp+wmFZA+rFN6MtWbLkjyeeeAJ3kAaU5vwvLMfrp0uB5tD1tj09KQ1d9mPDpTueJIqyQAAEBBGg5UblsGHD/qDEgpYSpZiObn77UFBjkQgEchB48803f/BGf6ZAQgcAGgRAwHsEEPq1ALZ8jan30Hu/ZJI/4FYWvE8FNRRE4NChQ80pet/L3qDEp969US7KBAEQyCKAJff8e4JH9g3R0UAgUAjwITi6i34UXfsb5g2Z69evf8Yb5aJMEACBLAKYoaMngAAIZBI4d+5c3W3btnX2Fg6O3++tslEuCIAADDr6AAiAQDaBAwcOtLp06VJNd4HwpTt8kj17qyqnV0ZmkRxkxt2ykQ8EQMA1ASy5u2aEFCAgCwIXLlyoTQ0VtdVUunTpOPKkWNKwYcNTFSpUiGGDfvPmzYoUVU53586dMuT+VvrKlSvVY2JiKsBlTRbdCI30IwEYdD/CR9UgIBUCdE+97rnnnqsnRp4yZcrc+eOPP4b16tVrTUH5DAZDWGJiYvGyZcvGiikfaUEABMQRgEEXxwupQSAoCVA89hCeTYtp3AcffDDBlTHn8sLDw430h994gQAIeJEADsUVANdut4tafvSintwqmqLFBbT8bjUamdwiwAZdTJx1Xlpv3rz5YbcqQyYQAAGvEMAMvQCser3ewrdEFYY830LFD0sOxSq0HD5UpNVq0wtrkKkMq9A6kU7eBMhlTU39NFQoBbpRLY5vVROaHulAAAS8TwAGPR/GFO7Vfu3atYnkl/s7hax0+9pHvm1q8ODB844dO9ZEqDr5VqsvvvjiUw7fKjRP7nT8gK5cufKNMWPGuFsE8smLgDMioqBW8+8j+44DQemRCARAwPsE3DYY3hfN/zVUrVr1OknB70K92rVrlyamADo8dKdx48YnxORBWhAAARAAAXkTELwMLG9MhWu92KVzsekLJx1ygwAIgAAIBAMBGPRg0CLaAAIgAAIgIHsCMOiy7wIAAAKZBP4T2Q1cQAAEAosA9tADS19uS5ucnFwkNTW1KAf4oMhdNZyRvK5evVqVC61YsWIMvW/qdDpL7dq1LxYtWjSlSJEiKfRX1P6/2wK6kZEuEdGfP3++LrlbVX700UfX0wFEtw8vCq0+ISGhxJEjR5qRb7WhTZs2+4TmMxqNWjpFHsYnyfnyEwq2Es5hVvnwIv0/hKOpUZrMS1FKliyZSOc3rvG/K1WqFF2uXLlY9rZgfZC7mFf0we0Rc/iT02b7lwtFUKh0FPhGS/e0F0tLS4u4fft2Weq31ViG6OjoSrdu3SqX3Ydvcj+mA3s2DjNbokSJxLCwMAP3ZerXkr05kX+TR48ebVq8ePGkZs2aHS0UKBGZqb/p6ZlwlylH+KP/F7l8+XIN9s6h2/EuVK9e/QpF+LtWvnz5W8SwUF4zpL8I6vcRXAfrj9pdIjY2tizXy32+Tp065zneP/d5PkckoilImk0ABj2Iu8L169cr79q1q/3u3bvb9e3bt+np06cb0MOvvJAmUxjPm3ww78MPP9xPh/r2tG/ffhe5KSUIyZtXmv3797c6ePBgS1f5+QfdtWvXDfTwyPfqVwqAUmrVqlW9hg4d+tjKlSt700PnMl0qwndt330IkIeAcuPGjY+yoXRV50MPPbS5Xr165wtKd/z48fvWrl3bs0ePHk/u3bu3zahRo36m9HkadKpbxWFUiX9V/ssPLJK1AQ882ACxXiivqBgB9IC7zeFV6a7yw3Sv+CHSSRQNvETFRie57z98+HDzvNpJV6YWY4PpipXze34Y//nnn89RvhgheciwGqkPLhUzQCSDE7pv37772dgNHz68Nf89e/ZsPR6MCqmTDHoCG/amTZsemzlzZlTLli0PkO+82waT6lVznyLvl8xBcEGvzp07b23QoMHZgtKcOnWq/vLly/s+9thjveh32uH111+fTOlH58xDA8hikZGR3ZOSkooXVBazJaN7u6A0JL/mzJkz9ekSnno8KCXvm4Ykw33MtKB8zLFPnz4rqO1/P/zww5tctd35PRnucPLuacqX/nC/oxDBDWkQW4PetQoqg/r5ybFjxy595pln5t13332nhdaHdCDgEwJt27bdRRU53YJc/n3ppZemF0YwMiK13nrrre9otH+IyuFZq8s6C0pDs0Mjt+Gbb755h2b6Rd2R7f33358gRA4aOOzkGUtedcTHx5ccP378B7l5kjE+Qw+J6jnz8OydZ+1C6nzvvfcm5tcmetjVpQftTzVr1ryQsywy0H9ardZ7tqxo8FCVy+J66arQ0zSbThJSvztp6KF34rXXXptMD2jB4VppMPC9O3V5Ig8Zt5POmbSr/sN6/v3331/ggRbFiudBWqH6rzM/D/yeeuqpfxcvXvwEXxXrSo7c3/MMkw21EHkoit5X+ZV/8uTJBq+++urPdevWZYN/t20vvvjib7nz0ECyIQ2uo13VySF4C6pv3LhxY8kYb+B+TCsbvFohmikZ9nguhwda+dVFgwYtDbZ70oB3SqdOnbbR6tItd+riPDRjPzdv3rxnxOoJ6UHAqwR8ZdBpRBwxYcKE9wvzI3L142vVqtV+mg13Egvs008//cxV2fw9LTVfZcOYs3xaYi1DM6zh/EDOqwx+4PHsM2ceXsamWcUyIXXSzGFR7vZcvHixxujRo3+kZVBelfjPw4+Ndu6Bx5IlS/oJqc+TaVg+WkX5knXvSidkZMZ7sm4xZXXp0mVjfgM1p9w0QNIsWrToSR6Iumt0hMjE20rdunVbR7P/1q6Y5fyeGdMKDcetd2kMBw0a9Hfusml7qBYbctJZYl5lPPLII5E0E79nlYSNf27Dn1denqE766PBipJmxbVp9eTl+++/fy9v1QiRWWgaHuDyKpSzPh480wy8GQ9i6Dd6iQJymYWW5SpdRERE6l9//fWsGD0hLQh4lYAvDDo9LGoLNWCufkSuvueR+rRp014RA02oQQ8NDTXQ1kDmrJMeGmp+wBO/3QXJRMu4yTwryCkPP2SE8mjSpMndZVieRX799dfv5p6R566fBza0lF4hZ507dux4IL8BgCumhf2+X79+i2nvs1pBOvGnQSdDuJpmuEXyk49uYyvPszrau+WtFpcG0xNpuB9PnTp1pNDZOi8hCzXotMx/xNlWbhuvbuU3IHW2hfsU7ynnZEQGvb4Qg84X3/DKBm1BPcYrfLQnHecJRnmVwcGy/vnnnwE0Uw/hGfSAAQMW8Cqet+rjATsPGMQ8b5AWBLxGwNsGnfbDmrZu3Zr3c33yIOR6+Af8888/vyoUmlCDzmXTCkBHXkoeOHDgP2zgXbWLw+TmXpoTM0Pnhx8PHnhQIJRjlSpVrvEgKtfDV9BsylV73P2el5P5IZufTvxp0Cni4gxmnJdsfNCQByTutrsw+XglgFe1hPRjMTN07lPcB5ctW9aHzjzw+Q6Xv03uUzQoq+5On2IjS+cDDnp6Np6f3DwTf/DBB7fwaoeQthU2De2nzxWiI6QBAa8T8KZB52VMoXvFhf1R5c7PS4c8IxACUIxB570+sTNdngHllEPMDJ1PkPMSLA8MhDLipUA6pHVPOF/WBe/7Ci3DG+k+//zzT6Ro0EeOHDk1L7no1Hp49nKxS4PnDV7OMvlshqt+LMag0yHANF5CZ0MrVG7uhzQjb+iOQRdaR6Cm499m7t+bK33J8XvRB0PkCEnKbf6MXnQK9lF/yMgnb8lQfy70sJNQGek07cNUdgmh6Tkdu4GJSZ8zLV+es379+m60h6sVWga7T3G+nOnZPYpPowstwxvpeN+UD0V6o+zClMmud7nz822GbEhpFtu3MGV7Ii/dnfDJihUrersoS7CvPq2UhG/YsOERMfcxcH8S0wc90e5AKYO5zJ8/HwfkXCgMBj1QenQecpLh6zp9+vSX/NmEQ4cOteR9bn/KwHULdcfzpJzshpazPL6whH13PVmH2LJov7YCHSAcITaft9PzYCd3HVFRUe1pD1vwto03ZWRjSmPjT/kApjfrcVU2uzm6SiPX7w8cONBKrm0X2m4YdKGkJJaO3UN++eWXV8VceemtJkyePHk0HxjyVvlCyr1z507pgvaPhZQhNg37l+fOQ4fpLvP1t2LL8mB69r9/mAYb/5GNZsR++73nZkIzLvWMGTNeErsS40FO/ymKB6f+Hgxx0BxvtjGQy+YBtDMQViC3w5uyI7CMN+l6sWwO1EABY9q7UwVHZCJ/2m3kK33G+aDliGX8g9m0aVNXMVe9cv0cOIIDgNA/t7gjjyfy0IOwHC9zUlnsMuOTF0d6y10RzdAv8n5f7qVWCvoRQ4eebpBfdRxHwuK76jkyWM6laL6Uh2fYHDiHgpdUo0A8LWhfvqTYxpw4ceI+crvjmd7NnHnpoFZCdsQvPitw98VRwdhljBkKXSLmfsM+4uSilF7QZUL8HfOgAC+XctbJAU0Ks7LD9bOfMl0RHM11cBtYdgraU6Uws1xadn+cOMz0V6SyPLZLRAUgEttXAik9BzOi30UVkjkziiJe/yUAgx6gvYJcpDqKXWZmA8KBIehE8TJ6sN+kh+J/9gR5P5wfap988gnvjd/jllUQKtrfGuQvg04n4Y00M77ERtJX6iTjGJ/X8jrfQU9ucMc54h1Fc9tNQW/OcvhMjpTGbzr4ZOZwpAWFqWUfX9qjL0JuSKWWLl3ajw66fcrhMoW2jVdtKCBJI0q/PWeel19+eTp5DizIK8QrzwypXyxlgyikHmrndZrNvkguVecKSs/GluujKIPsRnX3RW5PT2cPwIRUdzcNRce7wFH6KJrgRo5cyCydX1JdKj5LwX2YotgN4zpo5UbUEjr7pmcv7a4VJZgHEnOfogA8ZzxQlKAi+BAeD8g4MR0iDRUagU9Q4bkS0YDLTr9TE4eP5ZWibBdGUYMVCmpVjNz6BEW6dEdG5AEBQQQ8fcqdHlph7NdLlQs+GczBZoSeSOdG0YChA5/UFVoHBwPheNv5ARFzyl1onex7+/zzz8+iVYUuuesVc8pdaH2cjn2CKSzlOArh+p8lbUGdwY1E7E7HPtNi5OSgOGKqIoNemmbRF4XWwRzERKnLKQu7r2X7/gvuv+yf/sILL8xkX2uh7aJ4BvWFuiHmbPcbb7wxKa86xPihC+XI6TiqIP8+8lpO5lPvQvzQhdTHLnrMnV3A2Ctk3bp13Xjgx2GNFyxYMECoj72QujgNr+BwtDiOgMdxKzggFUde5NPqU6ZM+R+vsAgti9OxixwN0gYK1T/SgYBXCHjaoPPBHSHhIHP8WOzffvvtGLGN49CiQn9wHOGNfqiNfWTQ7fxQ4kFHfvV52qAzb17d4MhdYjkWNj3vN7Mft1BdcDr26+bY40LrpvMA5di3WGgd/DBmQyC0/JzpaCBQV2xIV/axpyVXwbHmnfXxoIPuJDgmtF2cLjtk8n+a5mmDzgNSPuVf0MDIEwadV1N4kEKrPX05lnp+OqPBUgkObiOGVV5p2T990qRJb2zfvr1jQdEB6VBkOzGTBh6QIGqcO7845PEoAU8bdNrj5uVUwTHaOY62O4dJtm7d2llo4AgOaEErAL28adA5pGTPnj1X8UifVgMKvKDDUwad/eFpqfrX3EFkPNpBBBTG8ceFBNlxPmA5yAit5OQbczt3lb406GxYxLSFIwFmbyEIIPXfJDQbHCUmAh3H4OdgN7lL8pRB59UWDgErpE+5a9DZUPK9CLNmzXpejFspG2J3DDoPTp577rnZdK6nTUERAXMzzQ67LHilxp2JiVudJkAz+e3Ua4DykoTYfP0pCSJ4/4luLDrFVyCKFZ5vXOPbqoTk4wAhtL+VeY2lN14Ubevg7Nmzh9H+fh860Lfduffnjbq4TN6P5z3lNWvWPEauga/QjNSv7mikixgyNP9x/cqv/bSsrS3osFoe+QT7WBeWOR8m5CtkhZbDN/3xzX9C0+dO179//3/pIOI9BwQLKotd2NzdTiioXOqzFgpHvJyWunuQu94ob/QpPizI/XbhwoUDtmzZ0oW2Kf6g8zL/iQGQn5x8aFIM5zJlytyhS39+4LDHfG6Bzo3spQFYqtAy6JIhUbep8eFdoWXLMR0MegBqne8rFiM2H8oSk96Zlmcq/IMVkpcPJHnD5YZkSKal7o8p+Eg/Wmb/hx5Y+V6rKkROIWl4T5OvBqVwsoPImHAceb+/+ApLPsQkVBA+9S00bXY6wQNEkeX+Jzl5U1QSUwZ7ZIhJnzstGzT2PhBaBhsNvvpWaHoh6Ro1anSClouHzJ07d3CbNm3yvHZXSDmu0tDv9TaFZB7Vq1evNe4MeoXGtXfK0b1793U0q3/b1fXD+clNK4D3eFy4ah++L5gATrkHYA9h9w0xYmcvm4vJkpmW765mVyehGT15SpZPrlMY1S20xPYurzB8/PHHQsVwOx0bTTpk9wfdXjaB9nj5EJpkXiRbIp8SFimQz4y0GLn4tLKY9BUrVhQ8u86vXDFlcAQ72tLRi5Exv7R8cp0uS5nx7rvvfkP/5lvWvPriVQA+Ue7VSnIUnh073u3qRK4iuV2PXDJihh6Ams7L7aigZrj7o6EHQ4aYmZ6YtK6wP/300wt4eZ2Nuau0nvielyrJPeyzH374YYzUjHl2+8TOuMVi8Znx54h6YoRzt//mrEPsKpUn+jJv29DFLx9OnDjxA18Y8+z2Knm1TAzfwqTlungAVJgykNdzBDBD9xxLyZZEPzh1HofI2EAU+EPk26L8FV2MH8C+WF53Ko0v0RB6XsBPisZDsxDgaSYpeF+3ENXck5Vny37qU94e/HkKEcrxMAEYdA8DlWJxtMf1psiY2ZkPBB59576AxFft88fhF3/UKYKnqFmtiHJlkdQfs0iuU+J9Sha6l1MjYdBloG3e2/bk/rYMkEmuibx/LnapWnKNgEAgAAJeJQCD7lW8KFzuBDgoDMdI37VrV3uKX96QPRTI7bA6rXyIOnRFoU61UrwWVe76RftBQEoEYNClpA3I4kkCft1z5sA2dOvZIxThbMTmzZu7iInF7kkIIsrCvqsIWEgKAlIkAIMuRa1ApoAmQDPwqsOHDx9PwT0GCr29LKAbDOFBAAQkQQAGXRJqgBDBQoBD7A4YMGDh3r172wRLm9AOEACBwCAAgx4YeoKUAUAgKSmpGEWzm5bLmLt0DwyApkFEEACBACDgswAEAcACIoJAoQjQFZQDed88j0KwP10ossgMAiAghABm6EIoIY0gAq5uQBNUSIAmokNvEXT388t0qj3nnfAw5AGqT4gNAoFIAAY9ELUmUma63/kI3XN8QGQ20cnppqU9ojMFSQa60rbJ4cOHW+RoTk5j7tcT90GCGM0AARBwQQAGXQZdpG/fvss+++yzz73d1JkzZ3q7CsmWT3e0d85DOJeGnC+hcRVnnOOK83WodOCumqcuDZEsSC8JRvcfYLXES2xRrHQIwKBLRxdek0TOS+Feg5qr4CNHjjTL9VGBxrxBgwanxo8f/9EDDzywI/sKybwMDpfBbzsFpynfu3fvlXRPd31ftSmY6sFAKJi0ibbkRwAGHX0DBDxA4Ny5c3WFFsOzcrobeyhtgxwUmocMepIvr8UUKpc76cTenib2dsG8ZLp06VJNd2RFHhAIJAI45R5I2sqW1RNXOwZgsyUtsphVkObNmx8WY8y54XxjnqQBiBAuJCTELCK54ubNmxXFpM8rbUxMTAWRZWCJXiQwJPc/ARh0/+tAtAQNGzYUdUc4xQ/H7EQ0ZeEZrl27VslgMEQIzdGkSZPjQtPmSBc0t61Vq1btqpj2cxx8Melzp71z507p8+fP1xFaBm2BWOvVq3dOaHqkAwGpEIBBl4omRMhRtmzZWBHJFRcvXqwVFxdXSkwepBVOgK7I1IhZRpb7Ckv58uVjss8NCIK8Y8eOB2jQVEVQ4jwSrVmzpuetW7fKC81PS/y2SpUq3RCaHulAQCoEYNClogkRcvAMR6vVWoVmYZcqviBEaPogSeezJdOwsDADXW2aIZSb0WgME5rWmY5njcFyfWrLli0PRkREpAplkJiYWOLLL78cKzR9znTR0dEVp0+f/pKYQ3HsdUAGPcad+pAHBPxJAAbdn/TdrJsehmm0JHhWaHZ+mI0bN+7jkydPNhSax1U6mvGU3b17d9ulS5f2jY+PL+4qfTB/X65cuTi+r1xoG8lfvTkFoBF1IJVO0TdPSUkpKrQOKaerW7fueWImZpVJOWPGjBEffPDB+ISEhBJC20YH4WqMGjXqZ1qy7yA0D6d78MEHt4pJj7QgIBUCMOhS0YQIOYoWLZrSsWPHHSKyKI4fP9548ODBf5Ov+HCaIYaKyctpeabDBnzKlCn/e+mll6bTtaCLH3300cgnnnhiMe1PCj7hLbbeQElfpEiRNKGyki4aLVq06ClX6fmg3dq1a7u/8MILMylG/Hxadq7qKk8gfK/RaGzdu3dfL0ZW2tJQTZgw4QO++IaNO3kV1M4vPw1+mkycOPG9Pn36LKcBZz8x9XDaHj16rBObR2LpfbY6JbF2y14cUbME2dOSCAB6INopbvjWadOmvUIiuQxe4hSbZ3lsjL/99tt3hg4durdRo0YnatSocblEiRKJtA+s5r1d3gtmw0Gz7lJ8upiuAq3OAU06dOhQLC0tLYL24kvnwuC4cOECP1z3SQSPX8SoVavWxX379t0vpHI2Tq+99tqUsWPH3keDrLmlS5eOY5c0Dh7Dy8u8RbJz584HaGn6IdZFsMzMc7IZNGjQ3EmTJr0hpv9yfoqV/zBtHz1UsWLFGOq/SZUrV75BZ0puEzs1DTork3tfGRoslBSzZ55TLl75Ii+EQ0L0iDQgIDUCMOhS04hAecjA7mTXpwMHDrQSmCUzGbs/nT17th6/xeQrIK3yxIkTjT1UVsAWQ3Hct8+fP/8ZoQ3ggRHvC/Ob9+DpbcpjsCS0uIBLd999952iGfSK5cuX9xErPPfhGzduVOY39b1GYvPnl54HVc8999yfNEi46akyUQ4I+JIAltx9SduDdfFDh2d3VKTfl9d4UEF7woJXCjyIQTJFPfTQQ5v4dLQ7AtEWSLiXjLnf+0Z+PHgA87///e+XkiVLxrvDzBt5eHae/ZvyRvEoEwS8TgAG3euIvVfB8OHDf2/durXXL11x1YKDBw+2MJvNovflXZUbSN9XrVr1OoVxjZKYzJIeZHXt2nUTGdB5UmDGg7GPPvroK/IguVaAPJLmmUPuQJFTCqoPKhlg0ANYnXQ4LnXy5Mmvs1+vP5uRnJxcjHzd8z2k5E/ZfFU3zTjNdHhtlhh3Ql/JJrAenxsBdsNj74suXbpsEiij15K9/vrrU4YMGcIrXniBQMASgEEPWNVlCc5Xln711VeZ+7D+agrtaar2798v6ECYv2T0Rb18qhouT+JIFy9ePJkOd77atm3b3eJyei71sGHDZtNthJ96rkSUBAL+IQCD7h/uHq31+eef/2PevHmD6ORvtEcLFl6Ykk8eC0/uk5Q+n3GSt0ASDa4+4lPX3mghBTy5TGF/T3qjbH+WyWFWV65c+fizzz77t7vnENyRn1wNUz///PNPaUAxkgYWKe6UgTwgICUCMOhS0oabsvBdz3Tn+QoKcfnYwIEDF/j6Vi42NHXq1LngpvhBle3+++/f7+ltkCpVqlx/8803f+A711999dWpQQUsuzFlypSJmzNnztCff/75NTFBk9xlQYcYt9Ag+JlPP/30CwoKJOqyGHfrRD4Q8DYBuK15mzCVz7G+xVTDPrVi0jvTNmvW7CidmB7GRn3WrFkvrF+/vhudPte6U1ZBeXgWxeFnH3744U2PPPLIBvZn54fwF198kW82XpYXI4fY9HmVzb71QutkH3Ax8dgLKvfpp59eQPHHb3z44YcT6G9HoTLkTMeDstq1a1+kfd2/+vXrt7Rx48YnyG9bQVHPDnEcdHrpCipXbCQ6LktMP80u36OrIDwwJTGmUdCYjcuWLetLQZA4gAxfquKRerjf0oBr38iRI3/t2bPnGh5EiNWNmD4lNsZ/XrLQ70ApRpfUj0U9a3LXyTESxDARwyOf9omqzxPPBTHtC7S0hVJ+oDXWX/JSVLVFZPSO04Epl/G+ucN27tx5Kxlkt8Tlw1mUcSk98FfyDVNLlix5cvv27Z040hsFiylNB9iK0on0EFcPST7cRWUZeW++WLFiKRyqk2bh51u0aHGIZzd0qvtaeHi4kaJ2CZKTH6QjRoyYKeRuazasnF5Qwfkk4tjq/NDmi2w4MllBZXF9er3ewkF2ClNnzrwUyS8qNTW1x9y5c5+l92A6NFiTr/DM74HJ0f84wE+pUqXi2rRps69///7/0t89xNj0ySef3C2adUAhUCeQPivlx5L7EOuHdGgR2h7WMy15/0U3k5V1pSMuv0KFCjEsq9DyxaTj0LCU/lsKqPMrB+uhPtyP/rYh2coQ0wj6vJgrw8VXtPKSOjOluOzRdNZkF/8O+aZC+i5djDzOtPyb6N2790pyGb0upE9xOGBaXSno1LxLMYhxAullLvcdIXqhQcpt6jOC4+TnFoAH5uyLz78HV8LxZIHiL2zLHoi5Sp7n9xRLYz9vGQo5TMohrPn541ZFMsnkkZGvTFgFdDM5BjYHk+FgHElJScU5Clxeo10yhDY23vww4ghm/G9+INJJejGxtwOalTeEP3ToUHOK1NeMI5jlvCiEo/OxceTbvWrWrHmZI87Rw9Qtg+MNuaVU5qlTpxrExsaW4+h5HFGP33nJR2dJbtKeeBJzJaaXyAD762yJlPBBFhAAARAAARAAARAAARAAARAAARAAARAAARAAARAAARAAARAAARAAARAAARAAARAAARAAARAAARAAARAAARAAARAAARAAARAAARAAARAAARAAARAAARAAARAAARAAARAAARAAARAAARAAARAAARAAARAAARAAARAAARAAARAAARAAARAAARAAARAAARAAARAAARAAARAAARAAARAAARAAARAAARAAARAAARAAARAAARAAARAAARAAARAAARAAARAAARAAARAAARAAARAAARAAARAAARAAARAAARAAARAAARAAARAAARAAARAAARAAARAAARAAARAAARAAARAAARAAARAAARAAARAAARAAARAAARAAARAAARAAARAAARAAARAAARAAARAAARAAARAAARAAARAAARAAARAAARAAARAAARAAARAAARAAARAAARAAARAAARAAARAAARAAARAAARAAARAAARAAARAAARAAARAAARAAARAAARAAARAAARAAARAAARAAARAAARAAARAAARAAARAAARAAARAAARAAARAAARAAARAAARAAARAAARAAARAAARAAARAAARAAARAAARAAARAAARAAARAAARAAARAAARAAARAAARAAARAAARAAARAAARAAARAAARAAARAAARAAARAAARAAARAAARAAARAAARAAARAAARAAARAAARAAARAAARAAARAAARAAARAAARAAARAAARAAARAAARAAARAAARAAARAAARAAARAAARAAARAAARAAARAAARAAARAAARAAARAAARAAARAAARAAARAAARAAARAAARAAARAAARAAARAAARAAARAAARAAARAAARAAARAAARAAARAAARAAARAAARAAARAAARAAARAAARAAARAAARAAARAAARAAARAAARAAARAAARAAARAAARAAARAAARAAARAAARAAARAAARAAARAAARAAARAAARAAARAAARAAARAAARAAARAAARAAARAAARAAARAAARAAARAAARAAARAAARAAARAAARAAARAAARAAARAAARAAARAAARAAARAAARAAARAAARAAARAAARAAARAAARAAARAAARAAARCQEoH/A8qm9pCaeRoVAAAAAElFTkSuQmCC;" vertex="1" parent="1">
          <mxGeometry x="330" y="232.5" width="140.28" height="140" as="geometry" />
        </mxCell>
        <mxCell id="GzNp09a5p9RIQE0UfILk-21" style="edgeStyle=orthogonalEdgeStyle;rounded=0;orthogonalLoop=1;jettySize=auto;html=1;entryX=0.5;entryY=0;entryDx=0;entryDy=0;" edge="1" parent="1" source="GzNp09a5p9RIQE0UfILk-13" target="GzNp09a5p9RIQE0UfILk-20">
          <mxGeometry relative="1" as="geometry" />
        </mxCell>
        <mxCell id="GzNp09a5p9RIQE0UfILk-13" value="AWS Cloud" style="points=[[0,0],[0.25,0],[0.5,0],[0.75,0],[1,0],[1,0.25],[1,0.5],[1,0.75],[1,1],[0.75,1],[0.5,1],[0.25,1],[0,1],[0,0.75],[0,0.5],[0,0.25]];outlineConnect=0;gradientColor=none;html=1;whiteSpace=wrap;fontSize=12;fontStyle=0;container=1;pointerEvents=0;collapsible=0;recursiveResize=0;shape=mxgraph.aws4.group;grIcon=mxgraph.aws4.group_aws_cloud_alt;strokeColor=#232F3E;fillColor=none;verticalAlign=top;align=left;spacingLeft=30;fontColor=#232F3E;dashed=0;" vertex="1" parent="1">
          <mxGeometry x="540" y="130" width="240" height="350" as="geometry" />
        </mxCell>
        <mxCell id="GzNp09a5p9RIQE0UfILk-4" value="" style="outlineConnect=0;dashed=0;verticalLabelPosition=bottom;verticalAlign=top;align=center;html=1;shape=mxgraph.aws3.bucket_with_objects;fillColor=#E05243;gradientColor=none;" vertex="1" parent="GzNp09a5p9RIQE0UfILk-13">
          <mxGeometry x="90" y="50" width="70" height="70" as="geometry" />
        </mxCell>
        <mxCell id="GzNp09a5p9RIQE0UfILk-20" value="" style="shape=image;verticalLabelPosition=bottom;labelBackgroundColor=default;verticalAlign=top;aspect=fixed;imageAspect=0;image=data:image/png,iVBORw0KGgoAAAANSUhEUgAAA9EAAAD/CAYAAAD2flWoAAAACXBIWXMAAFiVAABYlQHZbTfTAABq9klEQVR4Xu3dB3QU1dsG8CQQICRACL0TepXeexMEBEUFFGlKE6miqKAgKEWlgyJFUFAQkF6kCNJ77y2hhBpagBSSkOR7Xv4JX1iS7Mzs7O7s7pNzcjTk3jv3/mazO7e9182NXxSgAAUoQAEKUIACFKAABShAAQpQgAIUoAAFKEABClCAAhSgAAUoQAEKUIACFKAABShAAQpQgAIUoAAFKEABClCAAhSgAAUoQAEKUIACFKAABShAAQpQgAIUoAAFKEABClCAAhSgAAUoQAEKUIACFKAABShAAQpQgAIUoAAFKEABClCAAhSgAAUoQAEKUIACFKAABShAAQpQgAIUoAAFKEABClCAAhSgAAUoQAEKUIACFKAABShAAQpQgAIUoAAFKEABClCAAhSgAAUoQAEKUIACFKAABShAAQpQgAIUoAAFKEABClCAAhSgAAUoQAEKUIACFKAABShAAQpQgAIUoAAFKEABClCAAhSgAAUoQAEKUIACFKAABShAAQpQgAIUoAAFKEABClCAAhSgAAUoQAEKUIACFKAABShAAQpQgAIUoAAFKEABClCAAhSgAAUoQAEKUIACFKAABShAAQpQgAIUoAAFKEABClCAAhSgAAUoQAEKUIACFKAABShAAQpQgAIUoAAFKEABClCAAhSgAAUoQAEKUIACFKAABShAAQpQgAIUoAAFKEABClCAAhSgAAUoQAEKUIACFKAABShAAQpQgAIUoAAFKEABClCAAhSgAAUoQAEKUIACFKAABShAAQpQgAIUoAAFKEABClCAAhSgAAUoQAEKUIACFKAABShAAQpQgAIUoAAFKEABClCAAhSgAAUoQAEKUIACFKAABShAAQpQgAIUoAAFKEABClCAAhSgAAUoQAEKUIACFKAABShAAQpQgAIUoAAFKEABClCAAhSgAAUoQAEKUIACFKAABShAAQpQgAIUoAAFKEABClCAAhSgAAUoQAEKUIACFKAABShAAQpQgAIUoAAFKEABClCAAhSgAAUoQAEKUIACFKAABShAAQpQgAIUoAAFKEABClCAAhSgAAUoQAEKUIACFKAABShAAQpQgAIUoAAFKEABClCAAhSgAAUoQAEKUIACFKAABShAAQpQgAIUoAAFKEABClCAAhSgAAUoQAEKUIACFKAABShAAQpQgAIUoAAFKEABClCAAhSgAAUoQAEKUIACFKAABShAAQpQgAIUoAAFKEABClCAAhSgAAUoQAEKUIACFKAABShAAQpQgAIUoAAFKEABClCAAhSgAAUoQAEKUIACFKAABShAAQpQgAIUoAAFKEABClCAAhSgAAUoQAEKUIACFKAABShAAQpQgAIUoAAFKEABClCAAhSgAAUoQAEKUIACFKAABShAAQpQgAIUoAAFKEABClCAAhSgAAUoQAEKUIACFKAABShAAQpQgAIUoAAFKEABClCAAhSgAAUoQAEKUIACFKAABShAAQpQgAIUoAAFKEABClCAAhSgAAUoQAEKUIACFKAABShAAQpQgAIUoAAFKEABClCAAhSgAAUoQAEKUIACFKAABShAAQpQgAIUoAAFKEABClCAAhSgAAUoQAEKUIACFKAABShAAQrYT+Dhw4fpY2JiPOxXA16ZAhSgAAUoQAEKUIAC6gTc1SVnagpQwJoC9evX34LyX/i7XL16dYsMGTKEm7tu+/btF966dStn4nRfffXVt40bN5YyDfnVunXrFevXr29WrFix84ULFw4oXrz4ubfeeuvvqlWrHtRa4SFDhny3e/fuWonzz5o1q1vRokUDkiszPDzca/PmzQ337NlT4/z588Vv3LiRC//m7e7uHpspU6ZHmTNnfpAzZ85b/v7+l0qWLHmmWrVq+7Jnz35Hax2ZjwIUoAAFKEABClCAAhSgAAX0EYhFMXGJvmMfPHiQSUnRBQsWDDTJG7dgwYJ3leS1VxrpRJvWefjw4d9YUp+kyjxy5Ei5pMp8/Pixz5dffjna19f3gWk9UvrZw8PjaVRUVCpL6sm8FKAABShAAQpQgAKOKZDaMavNWlOAAgoFpEPOr/8NTLzwdfv27exVqlTZevbs2ZJqgTALHZwmTZoYtfmYngIUoAAFKEABClDA8QW4F9Hx7yFb4PwC7Ahbfo9f2royYMCAiVo60FKV3Llz37C8SiyBAhSgAAUoQAEKUMARBTgT7Yh3jXV2ZoGk4hQojV2gNJ0z+yXXNlkm//wrMDAwf5EiRdollxjLu0PkW37/5MmTtPfv3/fD8u20Cenz5s17/fDhw67oyDZTgAIUoAAFKEABlxdgJ9rlXwIEMLgAO8Yqb9Cff/7ZITo62jNxNgRme5j458WLF78bGxv70p7m11577Z/vvvtuaIUKFY5i3/MLKwCCg4OzXb16Nd/FixeLent7h65atUplzZicAhSgAAUoQAEKUMAZBNiJdoa7yDZQgALPBXx8fMLMcezdu7e6aZratWvvRCT011OnTp3kXuf4aNwSkZtT0OaA+XsKUIACFKAABSjgxALsRDvxzWXTnEJAzX5os2nlKKeDBw9WPnToUCUc5VT00qVLhSTAVkRERPq4uDh3mWHNkSNHcIkSJc688cYbK+rVq7fDnOLp06dLLF269C1EwK6Ao6HyhIaG+oSFhaWXo6GyZs16F53P21g6HVCmTJmTmOldg1nhCHNlyu/l/GjUtdLWrVsbSNmoqz8ilWeWZdY1a9bcjajaY6SupmVhhvj1gICAwon/vUOHDvNRj3sJ/xYSEuJrmq9du3Z/JdeBVlLfhDRY+p35r7/+ar99+/a6ly9fLoizsDPKrHfGjBkf5cmT53qlSpUOvvPOO0tgfD65crdt21YXy8UrJvy+QIECV9q0abM84ecdO3bUmjhx4sBvv/3269KlS5+Rf8cMeSEMArRKSAPzC6+//vpa+Rn1KCD3aOfOnbWCgoLyP3r0KCPuzZ2KFSse6dSp0++WHCmmxoZpKUABClCAAhSgAAUcTGDlpDOTwh9FvfTw7GDNYHWdW0DvI67aJ+bCmdGb8HPiI7RS/H9Jf/369dxJkWOPsGeXLl3m4nemdU62zDNnzhRJXFZSx1FJwK/x48cPxLnO0slMtix0yk/IfmXTuiVzxNUridPhPO7/TMtetmzZG5a8tCIjI9N8/fXXI728vGQmPEVXOSKrW7dus9CZT/L4sk8++WRc4jJwNvUpqdvRo0dLt2zZcnWCuZwhnlDn5cuXt06cBx3vS+hYF0SHfTHOu5bZ9eTqFDtw4MAJ6Ohz64AlLwDmpQAFKEABClCAAs4oMKLFf8Gj3tx2dd/KoJ6xMS/vh3TGNrNNDidg1U503759p5jr4Jn+vnjx4mcwu+xtKjlu3LhPVJYVixnvdOY60fEdREUdc3S2pQ4vfGntRMd3QjW9YKQDrXaAQuxkIODu3btZTC9q2onGcVpP0OmeadoZnj59eq9Eneg3TO9H2rRpnyi9R2PHjv1cU+OZiQIUoAAFKEABCriYgKsdceUe/jA636rJ5yZP7b7vQMCRe/Vc7H6zuY4poNsMYdmyZU+oJTh37lyJn3/+ubdpvvnz53dUU1auXLluYpZWOnXmvqS9itqMAGFtzRVmi9/Lsup///23sdprnTx5skz37t1nmssnkcFnz57dHUvuX3jPlkBnKeVF5/6lmfrk0o8aNWro48ePfczVhb+nAAUoQAEKUIACri7ganuiE/aMpg2+HFZhzqAjq/8cdmxVs15Fv86SO/0lV38xsP3GFOjdu/dPnTt3jjZTuzjsec1qrgXlypU7KgG0sB/3bOHChS/iqKZrCMQVmi5dugjsk8104sSJsjNnzuyBSNQ5Epcl+2nx848J//b06VMP5Cltcr24r776alSdOnW2YeY0GrPOXrdu3cqJ5eB5cKRUIcyKRv3yyy/mqpjk7z09PaPiI26/0Lk+duzYC8u0NRVuYSbsec6Avc4DTIuRvdvt27f/q1SpUqexfDtG9mkvWbLknWvXrr3Q8cUMeBu4l8IAx2m1VTGJMJ7snni5xy1atFhbuXLlg9j3HoZ9463Wr1/fLPH10IHOsGnTpib4t+d7r9XWh+kpQAEKUIACFKAABZxMAMu5bw9t+G+c6fewppsf7lh8eUBMzIuzPE7WfDbHMQQULWNGUxTta16wYMELe6KVEBw/flw6xy+Ujw5zeOK8CPCVwTQNglQdVFJ+4jRJLb2WcmXZsvzu77//biNHS0meXbt2VZO9xCbXjUXn/4XZU1sv55Y6mlr4+fndTWqWWOpavnx5ie79gi9msocmdjFdzm2avnr16nskuFjiPKZ7oiWPeH366ac/4n75Jk6LQZBUWKZ/1rTc4cOHf6P2HjI9BShAAQpQgAIUcDUBV1vOneRMTUx0XMb1v1wcP7XbnuMH113rHB0Zk8bVXghsLwUSBF555ZVTuXPnvp5YBAG80smMa0pKmCnW5e8GneCViCbtv3LlyjfefvvtZfFHS7nVqlVrH2bOX6iX1AdRvF8679mWdxPBviqYXg+Rvhflz58/yPTfEaE7dNiwYSNM/z1xJO6U6i6dZwRAexNRtmtjxn+XuXbKTDj2rn+WOXPmkMRpJQp53bp1t5vmTypqublr8PcUoAAFKEABClDA1QRcrROd0j5LjztXwksvH3d27uSue86c2nFbIt3yiwIuKSDLsU0bjqXDz98vcHxVKDpiMiv8/EuWgsssMGZEW6EzllErHGZqjyCy9NWk8mNmVWbqTb8U7Z/WWh9z+WQZtGmaggULXkkun7+/f6Dp7zBT7GfuOh999NF0nG9dE0ddrVB6FBeWwb9wjxJfI3369C+sLjB3ff6eAhSgAAUoQAEKUOB/Aq62J1rJw7b7g1tPCi0YfmLx7E8ObmnRp/hnuQplOMkXDAXsJYCzldcl1ak1rc/GjRubyHnPauqJgFWpcaazF/LI34Z0kqWTGou90ykOsKEzG4c9vGek45z4epg9bi3fsgcYM5273nzzzWWYTV6SL1++GyrqpeTvNKE4NWlVVMGypKlSpZIjpXT9kvO2dS2QhVGAAhSgAAUoQAEKaBJgJzp5tjSXjoY0+6nHvnorJp75pWn3It94+Xg+0qTMTBTQLhCHfc0dTJfjJlUcZj8DZRm0uUsdOnSoHJb4DsaS4DronCcV3Vm2PZjtnPbo0WMGjsyaltT1JODV9u3b68o39vdOQGd65aRJkwYkN8Nsrs78/TMBs/eEThSgAAUoQAEKUIAC1hdwtU60atG4WDevA6uvDzy//26rs3vvfFyierYNqgthBgpYJqB0VtNsJwv7ad/AvtpFZvYvmy1HmvPxxx//LBG4x4wZ82VKy5HlWCYs8X7z4MGDlZCunJIBAcu4mJsCFKAABShAAQpQgALWE3C1PdGaJR/ejiw8f8ix1b99cXhl8JXQ4poLYkYKqBfQ5e8UwcHS9OzZc6ZeAcBkSffgwYPH4QirvDgCq80HH3zwa5EiRS4m17ygoKD8CxcuVB0tXD2X5hyKBg80l86MFKAABShAAQpQgAJOIcCZaHW30fPC/vutph7e12jtT+emNexcaAyWeD9UVwRTU0C1QLLn/6opadu2bXXv3Lnz7LiohC+c3RyJQFVLEyJgJ/z73Llzu+I4psTBwZLtYCJAVQTyydnCz84XxpLy/PPnz+84evToIaZ7tHGuc3k1ddYxrdkOMqKPZ9LxeikVZbYuNqoHL0MBClCAAhSgAAUooEGAnWgNaLFP47x3Lw36/PD6Gz02zr74U402+aZm8EsbrKEoZqGAzQTOnz//0gqKgQMHThw7duyXppXA/urWJp1oxfVEXomsPWr8+PHhgwYNmpA4oxyVpbggKyaUwQPT4jdv3twI//a72stiX3mUaZ7bt2/nSK6c+/fvvxSJGwMRYWqva2l6BJXT5UgyS+vB/BSgAAUoQAEKUMDRBHRZJupojdarvk/CYjJvW3D5q3EddgXsWX61p17lshwKWEPg6dOnnqbl+vn53bfGtaTMbNmyGXZgCWdhHzdtN2bP3582bVpvBEVLcaYYs+vpbty4kTMhf4kSJc6alrV69erXIyMjk+ykzpgx4yPT9KVKlTpjrfuQXLlHjhwpb/o7b2/vUFvXg9ejAAUoQAEKUIACjibgajPRVllG+TQy1mfN1PM//dJnf9sWHxcfnK9kpkOO9kJgfQ0jYJXXqLQuQ4YML0WXl+jZ6FxPkHOHpfN4/PjxMvPmzeuMzmRucyKIuj0uY8aMjytUqHC4aNGi5/Lnz3/dx8fn2YwqAohl6Nq169umZSC9ISLct2jRYs2PP/74mUn93Pv06fMTIpd/1rlz522+vr4h8nt0htPeu3cvy82bN3NdvXo1P2aN87Zt23YJfvVsf3fjxo03ubu7x0oAtYTyzp49W6JRo0absVd8YunSpU/KkVcBAQGF0YHuuXjx4jamLk2aNNmI65ojV/37Xbt21RoxYsSwkiVLnsH9uZolS5Z7cp8XLVrUbtiwYTVMC0Rn/rTqizADBShAAQpQgAIUcDEBV+tEW/P2pgo6/ajhL30O7P/7+5MzXu1WZETGLOl4rqs1xZ2zbEXHS2lpeqVKlQ6Y5luzZk3LrFmz3sES7IeZMmXK8vjx4wxKy/7rr7/aY0Y2D9In3rP9bBAAEbiTbEfFihUNMcBUv3797dL5x2xsRdP2Yk93QflOyQHB1KTdz75wbFcQ9pUvR+TztxLnwRFiteXbnGeZMmVOoCO+2Vw6Lb+/ePFikeHDh3+DvIkHZ5K8N1iWHvnqq69u0nId5qEABShAAQpQgAKuJMDl3Hrf7Tg3jyMbbn00sfOe81sXXBoUHR3DfYd6G7O85ARSDECGTuOJ8uXLHzXNHBISklk6jQo60M87YsiTCR3ohNlq+feE74TiX5pRx9LxezgveoVRbh9m2z+WjqOW+ly7di1v4nwoq2/evHmD1Jbl5eUVjpn/TpipjlWbV0V603uR5GqHXr16zTANMKfiGkxKAQpQgAIUoAAFXEaAnWgr3eqo8JiMm2YH/DCl695jp3bebmGly7BY1xDQ7e901qxZH5oLYpUuXbqI119/fVVKtEePHi0X33FWdAewzPuxHG+FJdKGiWZfq1atvRKxHDPBJxU1IlEizETnTrx3Onfu3Dd37NhRF2dw71VaVrFixc5jOX0dzM6/NLChtAyTdJq3AmAGegMCzH2h8brMRgEKUIACFKAABVxKwNWWc+tyVJCKV4jH/RsRJRYMO7Fi4Yjji17vX7y/j2/aeyryM6mLCbRu3XqlSec0ztPT84kSBuyr/Tc4ODh74rSms6NVqlQ5fOLEiapDhgwZu2nTpsbx0bLdZUYUM9VHWrVqtbpLly6/Ye/yw/fee28h9vk+75ihHs9nbWvXrr1zw4YNTVFGk0OHDlU8d+5ccZOZaTfss34qe2zRQdvYr1+/KdiT+9JMbbVq1faZti2pQF0JadDGTaZtTFwvSZdUmViqHpKUYY0aNfbHxMSUW7du3WvLly9/c8+ePTVk73J85OrnbZc9zzly5LhdqFChwOLFi59DB3wX8r1QpL+//2V0rGuuXbu2+Zw5cz5AB71efCTu5+XInnBxbteu3aIPP/zwV0QJfymytxSKjv2p+NfC82uk5JLc6wN71S9InXF/iskSdJwR/jy4HNyiK1eufLBHjx4zO3XqNN/Ks+FKXsJMQwEKUIACFKAABRxCQPPMhUO0zqSSI1r8dycqIiarveqexsvjTpWWeebUfCv/FN/sXjfsVQ9elwIigA5VagTM8kNn6in2MD/w8PCwaJBJypNjsaRjLsc+SWAuKdvRtGWGGcvVfRGF20vqjoBsjxG1OkxLJzM8PNxLlr5L0DHpQKMsq0W/xiDAG1gu/+ys7oQvBEj7HV9dEn7G/ckgy/ZlgEOCjElAOUe7P6wvBShAAQpQgAIUsLeAq81E29U7KiI2264lQZ/vXXGtz/qZF6bW61BwtJe352O7VooXd1mB+A6ubsdQxZdntSOzbHWj4gcTHuB68m3RF5bOR6AA+TbEl0RTR0X4nmOIu8FKUIACFKAABSjgqALsRNvhzsVEx3nv+OvKF0c33uwUGRHjn9YrVZJLOu1QNV6SAhSgAAUoQAEKUIACFKAABVIQ0C1gEZXVCzy+H5UjJjrm+R5F9SUwBwUoQAEKUIACFKAABShAAQrYUoCdaFtqv3wt2YP6wj7UuNj/D+Rk36rx6hSgAAUoQAEKUIACFKAABShgKsBOtIFeE+GPonxn9Duw8/q5RxUMVC1DVyU0JDLLwpHH59+/EV7A0BVl5ShgfQGLAsNZv3q8AgUoQAEKUIACFHAOAXaiDXYfg04/qvZz7/07//7+5LRH957kMFj1DFOdp9ExqXf9faXPxE57jp7cGvweKsYOhGHuDitCAQpQgAIUoAAFKEAB5xVgYDH73lvTjp/8HInuYPojG271Ruew46opZ+fUfif/JL9c6a/Yt6rGuDoCsaU79M+1rug89wu5/cQftUqD7zB8xxqjhqwFBewj4OPjE1q9evU9BQsWvIIzqwNxPvSlqlWr7scRV/apEK9KAQpQgAIUoAAFnFSAnWhj3VjpCCZ0rN2jI2Mz7ltxbcCB1dd7bJkf+E3d9gUmpvZM5XDn7upBLHvFD2+40XFix13DEZAtO8r0SVQuO9B6ILMMhxZo0qTJZjRg8969ex26Haw8BShAAQpQgAIUMLoAO9H2vUPuJpeXDrTpv7nFxsSl3zw3cMyJ/263u3jo3idFKmXZbt9q2/bqNwMfl8ES95k3zj+uhCvLzLPpV6qk3GxbS16NAhSgAAUoQAEKUIACFHAFAe6JNtZdlk50cvckVfDlsEpzPzuy5Y+vjy64dz1MljI79VdUxFOvf38LGDr9o/370IGukUwHWgz4OnbqVwIbRwEKUIACFKAABShAAeMIcCbaOPcioSbmOoSpzuy6++75/ffeXD/zwvf1OxQcl87bM9R4zbCsRse23Gw7qcueHx/eicxvWUnMTQEKUIACFKAABShAAQpQQD8Bcx02/a7EknQViImOS7fjryvDJ3Xec/rQ+uvvOcv50tfOPaw4s9+BLYu/O/WXig40I3Pr+upiYRSgAAUoQAEKUIACFKBAcgKcibb/a8OiDiCCbOVb9sOZP45vudUu5HbEx745vK7Zv0nqayDHef07J2D49N4HeiK0Ggd31BMyBwUoQAEKUIACFKAABShgAwF2om2AnMIlLOpAJyrX/eLBB60mdNrdaPn403Ik1tRs+X0u2Ldpyq4eERqVYcfiKwMmdNw9OPpJbOKI28oK+F8qvRzVXJNpKUABCrwkcOrUqZLHjx8vd/78+WJBQUH57t69mzUkJMQ3NDTUJzY29lngyDRp0kSlT58+PFOmTI98fX0f5MyZ83aePHmuFS5cOLBUqVKn8+XLF+Th4cH3Nb6+KEABClCAAgYVYCfavjcmqXOiNdcIS7y9D6690ffQPzc+WjHh9IzGXQsP98mc9p7mAq2YMTYm1uPA2uvdJnTc8134w+hsFl6KD5sWAjI7BSigXeD27dvZZs6c2fPXX3/9sHTp0gW1l/S/nOhYhzRr1mxvw4YNtwwePPhHS8tjfgpQwHkEwsPDvS5evFj44cOHvnXq1NnpPC1jSxxd4OrVq/nOnj1bonjx4ucKFChw1dHbY67+7ESbE7Lu763S+YuLdUt9YM2Nj09sDW6/c8mV4dXfyDvDSOdLBxy5V39aj32Tb18Ke0UnXp4TrRMki6EABZQLYHbZe+TIkcPwsND3yZMnXspzppxSZq7Xr1/fDGd+V0NKdqL1gmU5FHAQgejoaA90lIudOXOmJP5bRFa2yH8DAgIKYxVLXjTDvX79+lvx3wYO0iRW00kE7t+/nxkrrkrJaxGvyaLnzp0rfuHCBXltFsmfP38Gaeby5cvfwH/YiXaSe57QDKt0Wi0wkvpYrU5PQp9m+Wf6hakH117vfvnkg54Fy2TeZ0FdLc5670a4//pfLnw/Z9CRdywu7MUCrGaocz1ZHAUo4CQCR44cKVe+fPkl8hBhrSYVKlQo8PDhw9YqnuVSgAIGFZg2bVq/gQMHTjRo9VgtFxbAlqNTt27dymWG4NnWJWf/crWZaEfobOn9wnO/czW83OwBh3asmXZ2UsNOhUanz5gmxJYv7Eic97z1z0ufT/lg7+CnUbG6zdbYsg22uhYezMsnca3Er1u9Xx+2atoL18mWLVtw3rx5b9jl4rwoBSwU2Lx5c4O6deuuePz4cUYLi0oxe5EiRQLYibamMMumwP8LYPY3tSyTxsxaiUuXLvnfuHEj982bN3PJzBuWUHtLSqwSyeTl5RWRNm3aqNSpUz/19vYOk+0X8p01a9a78p0jR47buXLluuHv739Z4h3QmAIUcE4BV+tEG+0u2qxTjyXennuWXfvs2ObbXfatChpSpUWeOR6pPKy+DPrKyQfVEXF79p0rYaWtiG8zRyu24VnRFSpUOGLtaxih/P79+09GPQYYoS6sAwXUCMgytpo1ay6zdgda6oRAYxfV1I1pKUABdQK7d++uvnLlyje2b99eJ0OGDBX03JYhNcHS6zAJGIjvgGLFip0vWbLkmbJlyx4vU6bMqXTp0kWqqy1TU4ACRhJwtU600WbxbN75kyBeqyadm7lv1bXe2Js8oHCFLNut8YIMCY7Is2Hmxe9m9jvYGVt3rO1uc0drmMWXKW2xtpcVq8+iKeC8AlFRUakrVqy4SAL62KKVRYsWZSfaFtC8hksJYIY5FwIB9pg3b15HDIgVtmbjZQb7xIkTZeU78XU8PT2jW7duvU468Na8PsumAAWsJ+BqnWijnT9sr86f++3AsArYm7z110GHNtdpV2BssapZN+vxMrsTFFZk199X+03stKfb/5Zusz+ohyvLoAAF7C8gD94nT54sY6uaIMLpWVtdi9ehgLMLbNu2rc7kyZP7IxBgKyzd9rRne+X6iOqf3Z514LUpQAHLBFytE+0I7bVlx9o98MiDxviuP3/o0eWtB5bomzFrOk37d0JDIrNs/i1w2OSue3pLdHDLXpYunZujDi59+9l4IwtMmjRpoC3rV6JEiXO2vB6vRQFnFLhz507Wbt26za5Xr15rI7UPkYyDEIHfSFViXShAARUCLtXZ8Uzr8SQqIiaTCh9rJzXtMNurA5X67J677wQe3dNs64JLo2q9lW+SZ9rUivfqHN10891JnfdMi3j81M/aYMmUb8uBBzs1kZelAAXsKYCH3arVq1cvYqs6IFDRgyxZsty31fV4HQo4owCOiCqOLRgbg4KC8hutfQg6dstodWJ9KEAB5QJGW96svOYaUvaYUqlWoQqZ/0HWCA3ZnT4LBhgybJodMHbKB/tOndpx+w1zDb5zNbTYb18cXrNkzKkFduxAm6smf08BClDAYoFly5a9ZXEhKgqQyNwqkjMpBShgIhAcHJytRYsWa43YgZaqIoL3Td40ClDAcQVcqhOdNa9PwIfjKzV/b2TZdn65vS7gtsXY+dYlNYNq91nV+zcjCi8YfmL5r4MO/nsr4PFLUbUjQqMzrf353Pgp3faduLD/fgs7G/LyFKAABawu8O+//zbS4yIeHh4xCUfiyH9RZpLv+RLNV4/rsQwKuKIAouf7vPrqqxsDAwOtGjjMElt2oi3RY14K2F/ApZZzJ3CXrp1jdXTk0427lgb127bg8pCo8Bhf+98K49Ug8EhIo2k99x29felxyRz+GZ5HiZ3V/9CO25dCX4g0abzas0YUoAAF9BGIiIhIi+NvymktTSLxyp7Mrl27zsExdkfx89OEsmJjY92xZzPb9evX8+CM2iISxffo0aPlq1atun/RokVaL8l8FHBpgR49esyQvyOdEJ4NdKVJkyYKR1aFy//jKKx08h1fvqateFzOrdPdYTEUsJOAS3aixTp+z++Pj+4+mb/x14sjDm+42cXdzT2Nne5D4svafSb6hcogSNjTqLgXXCLDn2YwgBOrQAEKUMAmAufOnSv29OlTTZ+XadOmfbJ27drmjRs3/m/69Okv1Rcz0/KeHxz/LefEL5FEq1evtknbeBEKOJvA0qVL27z11lvvaWlXoUKFAurWrbujXLlyxyQ6vr+/f2COHDnu+Pn5PcARd27ynfhLZrxDQ0N9Hj16lOHBgweZ79+/74dBsey3bt3KiaO0cl+9ejW/DJBdvny5oCwvT9zpzp079zUtdWQeClDAGAKaHgqMUXV9aoFo1BLYoeeVkw/m/Ds3cKREqsbPtupMy8OToTrN+qiyFApQgALOI4AloZoDig0dOnSUdKCdR4MtoYBxBdCR9S1ZsuQ0NTUsX778EawSmduqVatV6DRfwd+74uxYoRKKxPJtNkgYzoz2wv7sPNeuXcsXEBBQRDroii/EhBSggOEEXGpPdEr6Bcpk3of90k0/nFCxUY5C3jIbYO/90kZ6sWhaqmSkBrAuFKAABbQKyKyS1rzycK41L/NRgALqBMaPHz8If6+5FOaKGzdu3CAs+67Yv3//qdKBVphPUzIsBY/A7PbFRo0a/Yfl5rPQAWeQW02SzEQBYwi4/Ey06W0oVN5vZ0xMXOWDa6913Tw3cHTYw+jsxrhVdq2F0TvRRq+fXW8eL04BClgmgBmk9FpKwEPyo3z58l3Xkpd5KEABdQJYap0af2/dFeaK++2337rga57C9ExGAQpQ4AUBdqKTeEGkSuUei3/+FVGoF2/5PXDY3hXXPoqNifO2wmvHtPPHpd1WQHakIrGs7Kje9ZX9WhKwSEu52bJlu5MnTx7dOwHWKFNL+5iHAkoEsO9RUxwInPN8D3mVXIJpKEABCwU2b97c+Pbt2zmUFDNkyJDR7EArkWIaClAgOQF2olN4bXj5eMrTz2fBV0JnLx93ZubVUw9r4edULvhy4kyvjW46lpVV0PtS//33X50GDRps11Lue++9t2Dy5MkDtORNKQ/aqXeRLI8ChhNIiORruIqxQhRwQgEE42uppFlYUn3um2++GTF69GglyZmGAhSgQJIC3BOt4IWRvYDPue6TKjVo3rto/3Q+qR8oyKI0iSN0Tjk7rvRuMh0FKECBRAI4EieaIBSggG0EtmzZ0lDJlb788svR/NtUIsU0FKBASgLsRCt8fXik8oit9XaBnwbOq1G0Ssvc09w93Kz1cGS0jjUjiCt8jRg4mdFeUwamYtUoQAEKUMDRBOSIKRxFV9xcvbE6JOydd97521w6/p4CFKCAOQEu5zYnZPJ7H9+09/BPfe8EhU3eufjKgKObbn3wNCrWS2UxCckdoXPDmWiNN5fZKEABClCAAhSwvsCxY8deiYuLMzsx1LRp0w3e3t7h1q8Rr0ABCji7gNk3HGcH0Nq+bPm8L745qFSfgb/XKFa2Qfb5KCdKQ1nSiTbtSButY81OtIYbyywUoAAFKEABCthGALPQJZRcqW7dujuUpGMaClCAAuYEOBNtTsjM731zeF1Dkk5ndgcvWjnh7MzH96NyqygyqQ6z0TrRKprDpBSgAAUoQAEKUMC2Ajdv3lR0lnuRIkUu2LZmvBoFKOCsAuxE63RnS9bMvvZJWHTxbQsuf7br76uDY6Lj0mkomh1oDWjxWThjrt3OcDmDg4OzXrhwodi1a9fyhoSE+Jqe05suXboncnwQzgQNKliw4OVcuXLdMlwjLKjQjh07akm77H3G8NOnT1Nt3769bv78+a/g4TPQgiY9yxodHZ3qxo0befCd++7du1nk3uIItgxPnjx56f0yY8aMj3DO8uOsWbPexf29gToEcRmmpXfAze369eu5r169mv/WrVs579+/74e9pBkTl5oqVaoYX1/fEHHPmTPnTX9//0uZM2d+aPmVjVPClStX8p85c6Zks2bNNhinVm5uuBfegYGBhfC+lw9HNeVMfG/knuBeBFaoUOFopkyZHlmz3vjb9JN6yN8q3ouzh4WFPT/iE8ceBuO94GK5cuWOe3l5PbFmPdSULa9lJenz5s0bpCQd05gXePDgQSZ5D0dKeXaNS5069VN538brk+f6meezaYqHDx/64F5ljo2NlROG4jw9PaPl8xTv7SE2rYiTXYydaB1vaDpvz1AUN/zejfDf/pl+/vszu+62xs9pUriEadAudgR1vB8syjEEIiMj06DTWPvff/9tsm/fvmpHjhypkD17dvlgVvwlD5h4uDwsS/UaN268qWbNmnvQGZDz3nX7Qr3Kxz8wmPs7fTYYVqZMmRN44JQYCoq+ZOBg7ty5XefMmfNhnTp1iv/111/tkXFRUpkT1UV+nVJ9ntWlZMmSp9AhuqOoIkiETla+SZMm9ccDZwfpbM2ePbsb/llRJxof0u54AC944sSJcqdOnSolgyHyQH7p0iX/tGnT5or/EFdalRfSyaBJxYoVD9euXXsnjm3bgv8/4uHhYe5+pHgt1LMMOg1ZU3qf/u233wpqqbCc0Y4j5uohr+oB0tKlS5/E38FdLddNyBMREZEOgyB1UIeGBw8erCzfOKPdV22ZeO3cgvUhmG9t2LDhZunIWepuWgd5zQUEBBSO/3dz99Q9/m/+qNK2YKAm7cKFC9vPmjWre4ECBWpWrlz5EPIm2YnGa7XA5cuX/RXUxV1s8Pd1Vmk9EtKhY5r+wIEDlffs2VNz79691eX/0QHJY64cuMfg/WH3Bx98MEeOIMTflJatZM8vIx0hiWq9c+fOOocPH654/PjxshhAMdshlYHM5s2bbx48ePAP9evX13SEorm2qvk9XuvplaSX142SdEzz/wJ4Dy+Mz+i6eP+odPr06dL42yiIwbg86IB5JuWEyOdRMlhRokSJs2XLlj1ZtWrV/fhs3o7PQ4vez3hPlAns3r27+vr161+T+3X+/PniQUFB+TCwkTa53LiP9+Xe4PMmGJ8P12UAXwbKChUqFFi0aNELuJfX9H6/V9YS46diJ9oK9yhL7vSXUGzbgMP36q+Zdn5K8OWwsslcJiaJfzf38GCFGrNICtheAJ2X0hMnThyIN+63MUqayZIaSOdWOgryPWLEiOEyc4kzQKf17dt3KmYzZXDL4q+BAwdO3Lp1a32lBcV3PH81lx4PJSXGjRv3KWZaOySakY2T2drk8qqty4QJEz5BWRPN1UUelpB2ULFixbomnh2WB6bk8spstXTqYdMAH941c+TIUfvOnTvZzF1Ly+/lYUC+V65cKQOUbnKfYbGoR48eM7V0ZKSMr7766ruE8rTUKaU8Fy9eLCIdTy3lxp95u1Zt3piYGI+NGze+io5/FzwYtZCOvNoyTNPLQMq6detayLf8Lnfu3NfFvVu3br+is3/a0vIl/+LFi9t++umn45SWJQ93SFvMXHrpPP/++++dcDbwUMxAF0hIj9neZF/TsOsq7yPmypbfy+Ad/lPJXFoZXDp69Gi5tWvXtpT7gwfXalFRUSkNsidZpAxCoUNTR77Hjh37Bf77gXSqzV0/4ffy94oOc61//vmn+aZNmxr7+flVUBKQy7R8eX+If000f//99/+cMmVKP5Sl5xGgSpv0LB060UoCvMahE23VWXxVlTZwYqyEyD5jxoye8+bN64S/tSJqqiqvawycFpbvhPcMd3f32OrVq+9v27bt4o4dO863Rod6zJgxX3z//fefp1RXdCZD8D6QMECmplmK0yqpBwYXTsjAhOJCzSS8d++e3/Tp03vJexcmEVTdLwyk+ck3OtxJvp/6+PiEVqlS5Qze60/h/e7Q8OHDtay01auphiqHnWgr3o7CFbNsjY2JLb9/9fXum+YEjHwS+jS7yeWkE52402zEDrTqGRQrkrJoJxCQpZTDhg0bieWA71syK5kSBfbH5R4yZMho6TyOHz9+TL9+/aZg+dJTW/KZO25FZmlHjhw5DB9M7yTxEOue0kO+2nYk9+GYUA46z0W+++67r9AR7YCH7Jc+F5LrRMssKwZBlmIpZRa1ddIjvdxnGYjB94A333xzhTxAYQDAKfY8ynYFtUarVq1qWapUqXHmXntqyzVNL8t8Yf6J2MuSaHQ4h1WrVu2ApeWqyS+zYXhY90zuvF+Zhf/ll196YVZlMAYBcpmWLQMDKeVXWhdZOYNVJNnwd5DkSg8MpBT+9ddfP0Q9OsgyeqXlKkkn9xkrA7aio/I6ZoWTXZouHefNmzc3lNUtqGdrnf9e3f/444/3ZRUR3keao8N1UUnd7ZjGiM9ZduR48dLy+fztt99+jUHdjlglluzspdoKy2ecrLiQb/ls/uKLLybJACY6aGFqy0ouvQzsxK8W06tITeUoqcfjx48zaCrcJBO2SKWW9+HChQsPsVbbZSAWK2WqyDc66Z1RBfYL4u8DO9F6vIpTKEPOl8avZzy8E7Fy+19XBh9ad6NTdGRswgOnaXR0Scs3ePX3hH/Q6s1snkNGSuXDGTNCPfEho2TWwOI6yjLdQYMGjZcR9TVr1gxs2bLlOosLVViAdJKTSir/jg7rUCz3bp/SDJB0EhReymwy2f+ZVKJt27bVwbLtgbgnrVIa0Eg8g5e4HHT07ur8QG62LckkcF++fPmbmOVrAdsReEgb4+jLz8RWKQaW7VUcOnTo6FatWjVVmkendO5YNtgM301lNhIDVoOwEiFYp7JTLAYPj56ycgKJXlhKjc5xjp9//rk39g/3kI5yCoW4Y1WDzEZftrC+7rIcGmU833px6NChCng9tsGgRissi5SVaFb7jBKH9u3bL8Y161eqVOlIQltkRYJ0WJYuXdoGFm1lBYeF7UwxO+5FUay6+A8d+0Z4PzlvzWuxbP0FMDCWS1ZfYBCyi56d56RqKp1MWUUhg0tYhfV9nz59pmF7QKT+rUqyRKd5xsbffHnMEM/BCpcKNrKTy1jtvcyGbdDtUuxE60aZckGZsnlJ4KNPHt17MnbTrwFjDm+42QndZQnokrgjLX/cuu7jtFHzeBkKpCiA2Zpy5cuXX4UHOV1nYpSyy0wsOtBr0bkahWXeXynNZ0k6LNN+oRMtDymff/7595h5fl/JBxFmf/Nacv3EeWXfb+Kf4VGkZ8+eM+vVq9dAyTWS60Rj5voMZvij8CCvelmqkuuqTSPLCDG7MQoDFaUx+9YJgW6S2jKjtli7pFeyH1qWCI8aNWooHqRGaFmSq2PDns1GSmcaS4TbN2nSZIuOZSdbFO6zdFCfdaJl5hl/20Mw4/up0kE6vK4LIutlS+uKWd5G6HgsFwMMSg1AZza5LVyWXirJ/BKArE2bNsuxz7qkLJuVuAr42+xvbgWK3pWRQJBYEbIMf4cVklshoPc1WZ7lAhs2bGiMFSyLJfCU5aUpL0G2/cgWDtlugaXfb2APrmyFtPaXU3QC8Z7TALFB1iiNBWBtVFctn51oG9/5jFnSySj9h9fOPfxp7bRzk/D/if+gjfrHbdR6Jdw9nndu49exmsthNqQqAs9swL5nXzX5rJEWD9lD0ZF2s0VHWpZuyn5MiXY8efLk/pidGa5mCZcsq9PLQGaL8Z0Z+8EeYpbuIzzkj1FTl+SWc6MDHYuHrwsSbEavuupRDgJIvYcgTRIhtpce5dm6DIlyay5qqnSgZS94/N57W1cxyeth5Ue2Fi1a/IPOZFfMTC+wdqUSlq0fO3asTI0aNeZjRqa8mmumtNdfTTmypx4rXVrI9gI1+fRMKwNd0pGGxStJLV/X81oplSXvBTLDiDS/2OqavI52gfnz53d4/fXX52jZn6/9qi/mxCDvK9jHuwtB7V595ZVXTupVrrOWI88GcFrGDrT97zA7H3a6B3mLZzrcc2rVuukzpolIVAW5H7wn6u8JzdSb2SSH7LXFXr11RuhAJzRYOtLy4GBtAFkejT2I7TBLeEBG29V0WqVucrSM7HfSq56yrBOBXfYi2No0tXWR9LiHSe7hwuDAOb3qqGc5soQfnbn39CzTVmUhQNN9c9fq37//ZCN1oBPqKw/jnTp1mofAaM+CkFnzCw/fZbG6YywGhQ6r7UBLveQoKT3qJ3+r9uxAJ7QBM4pN7dmBTqjHDz/88JksJ9fDlmVYT2DXrl01EOV9rj070Amtk9dt06ZNN2Ab0/Pgf9ZruWOX/PXXX39rpGcqx9a0rPa6PaBZVg3mjheQGV85w41f6gRops7LJqmxvNETx8jYLehUSo3s3bv3dCyv3oIowzetidGlS5fftZYvnXBESJUo17rUsXv37rO11kXyyfnC+M9LHWbs7T4l+z8tKdtaeRFBehKijq4zN6trretrLVc60eiYJZsdAbN69urVq6/W8q2dT167cvwS9uJX0xo1XUkdJaK3knTJpcH2Et22TFhSD2fLiyPCCsWfZGCTZf3O5meL9khQPWyxmiV76nW6nmxHtGjVogxEyXYArOCqacM90jo13zbFSBwIDFxbfRLANq1x/KuwE22ge5jKM9XTDH5pgh/fj7LbkjADcSiuStr0qR6mSZcq8Yy+4rxMaD0BOY9VlmlZ7wraS5aZVQQ0GYQSPtVeivVzxgcD0qUTbWlt4/ezv9SJxge66jNyLa2L0vyy506W0iP9CKV5jJBOzu1Mrh7Y51oUke0nGKGeKdUBf2MZO3To8Ace0qth2b8h96ZLlHGjOzpq/SSoGurOTrRBb6AE+VS7DQdnkkc2atToX0SE/w8rrPYhEnuAnCKQcFZ5eHi4Fwb/smIQxX///v3VJdAjjnGqrSZeA+KnVJRo/2AbalA6u1ZL4j6oOdVEzrGXgQksl9+NoHHn5GgxiZsgAx6IpZBB4inIXngJwohB+xwSi0WCmsrxjLJsHIMtukVotyuclS7OTrSVYLUUm9YrVVREWHSJbX9eHrJ76dV+MdFx6bWU40J5nhSp7Leh9cAS/X380qo+DsaFnCwaHdbihAfnVHjDlk6qYb8k+A6Obhiu5xEbejc2PrjYfr3L1VJecoHOECjthJbybJVHIjXjQWC0IwU6Qic62fN2JZKto+yFO3z4cCXMmn+Eez3NVvdbzXUw8/XS0Vdq8jNt8gI4/k5R0EIa2l4gICDAH7EsBiu9MlbG3Pvyyy/HyLnwsqoHR6olmTV9+vQymREU/70d//0BsUHyTZ06tQ+++yoN+IcB7s/QgZtRoECBq0rrqCKdw0bnRmc3Y65cudoraStm8iNwXvWXsupOBjlwhrSSbC+kkaPx5P5JkFTEnyiBPeuvSMyF+K0zNn+uVN0AG2RgJ9oGyGou4eXtKcFwvrx3PWzWP79cGHdm110ZzbX3cmWj/bFEZ82b/sJrHxX9pESNbBvcflAjzLS2EFi0aFE7WdJni2tpvYacqRh/5uHPWsuwdj49I3RbWtf45dwvFYOZ6Asysq1mtsHSuqjJL/tVsVf0VeRZqyafPdNmzZo1yUFBHGVVAVskpC0O8yXH5mCwaq4RB6v0DN7nMDfERhU9efJkaUQLT+/t7R1uo0vyMgoFcAzg10qPsWrduvVKCRQn70mfffaZwiv8fzKcNy2d6s+xgmY2tnj8ifewKuYKkSXmsmUF6TgbnQgLcSZeVzKA6uXlFY5BrPqIgXIAW5rMcSf7+/jTLS4jgXw/HznB7PYNI8Re0NwwHTOyE60jpp5FZcnjHYjy2gSdCamM86U/P7PzTqu4ODdDHCOjZztVlhWVs5D3idptC4wv2yDHktRY/q4yP5PbQAABZdyx3PRLSy+VIUOGxziCaRtmOk/lzZv3mkSWlqjFeDDzlrNg8ZBWFsfpNLbknOJp06b1QT0N24nW86xoS+9H/HFALxWD2YcnJUqUOH/27NkSSV3D19c3BB+6N3Fk0x05+1hmWeXfcH9DZXkgZoijEvLJMntZXiZLy2RJIO5xGXTAfCytO4KqvY0ytHaiLd7rp7b+OGv5dlJ5MKv+sdqyUkgfJ0v95FxnuR8YCInDzENqieIuAbfkPuhxLTmrXWahUNZYPcrTswxZvojORJqE5ah6lu3qZcmSUxxBJsf8HXR1CyO1H0dJFcTApxyzaPbro48++vmnn37q4+HhYfHsLVamXUAHsA5OFJiFwJ4dzV0cA9xyXvUI/m3+vxROAHjdnJv8XmagpQOtJC3TWCbATrRlflbPna+kr3wAvRN49H6d5ePOzLl/I6KI1S9qvAvEZsyW9krT7kU+L9cw59/uHu4Wv6Ebr4nOUyNE/KwpnR+tLZKOcr9+/SYjAuV3snQMHxzJFiUPwDNnzuyGpWbfa+lsoeNXct++fVWqVatmxA+cOOlkanXUOx86u8nWBcHFTqJDkr1ChQpHsFfuIAZRjqJjfaZIkSKBctQUZv3dYK26ShL8RmaRR44cOfzAgQNmZzCSu8DGjRubJPe7P//8s0MKwXWevdeMHTv2i++///4LtQ0oW7bsie3bt9dFPtOOuOl72AurfbAUL/zHH3984XKwSI39bDIYYMlXnJyX3rlz599kXyMGNe5jwCLJ8mTJpzy0SQRwiYJtyUWnTJnSF4NrP+C4N9mLZ5gvDOwEI8qtNyr0fCDHMJVzgorgNSTPK+xEG+he4tSCXkqCieEzcR8Gv/rp0YFOaD5mSCMxuNJZBq/wnpziihoJMibHxiHvcgPx2bUq27Ztk8+SFL8wIPoAQSdnDBgwwFxS/l4HAXaidUDUq4iI0Giff+cGjGjUpfDI9Bk8HyYut1B5vx3R0TGldi25+sm2BZe/iAqP8dXrusYuJy60aqu8s5v1LDYUe8a5LMzYN+tZ7RCp+S2t1ZRlSDhztdWrr766ecIE87GT4kepf8ZZ1PsbN278n5aOND7Mm6K+hupEv/baa/9gNPkLRE89rtVSj3yyTPuNN95YiUGK0VWrVk32YRj7yzujsxy+ZcsWN/nW6yt+H/NazJCul73AWOKn6dxnCSCFZd3ZZDbctG5KlhkPHz5c02CGnBGuV2Rw2WOKDl8mrbaysmPBggXtcSbsupQGphLKL1y48CX8/xR0fqchSGA3PJRNxp7GdFquLw/E6IjLWeKG2D+PwZ2LcuwcBhN+x3vOEy1tsjQPOicxOOv1hAw8IYL5GQyQ3JFz5bHvsNySJUveljO3Lb2GkvwYsHmCv+39OCbsUKFChQLx9xAqqxCwn72iHIuH99Qkj7ZTUrYE9lOSjmlsJyCfrwquFodVL73il/MqSK48iXTKMRveE7Ph58115lesWPGmPFIoL915U967d88Pg55mYzggiNgKRja33euAnWjbWZu9UlxsXOq9y699cnzz7Y57VwQNrdwi99zES5Y9PVNFo5DvH917Mnfj7Itjj2y89S7mNzQ91JitjP0TROYq6nOwZZ/igwqWzbzPbYD9K8QaKBOQvTjKUr6cCp2xD6QDrTY/li4dxAj7Jz179pypNi+ih9ZRm8da6WX5+jfffDO8QYMG2/755x9rXUZJuXHt2rVbPGzYsBFYTn8GAyMp5pEOtJJCtaaRhzl0pPtgP11l+dZSDo5bkuXmL3WitZRljzx4PTTXel3pQGPrQyMtS/ziZ49n4sztx++///4CrXXYvXt3beS1aydaOs9Dhw79Du34ExHDn2LGRmtzNOWTqOvYY7oKAxmrEOV4C2aNHiJIz0tlYeXGF61atVodv4pB07VSyiRnu6P8VRisW1ejRo29MpCAa72UBVs4vm7SpMkm7GctrqUS2BrgpyUf81hHAHEtcubJk6ekudJlEBeDKi+/MM1lVPh7DNZcbt68+UYEKEvxLHnZrqWwSKdPhoEHfyWNxDPE1rlz5ypJyjQ6CHjoUAaL0E9AlvhFhj+KzrZ6yrkZP/Xcf/jioXv1TYvPmCVd8Nufl/mg17QqtfOVyrgbvzfk8SFaWXwyp7n+5qclu3/0c7W6zzrQ/HIYAexX9pIIjloqjI7jf+++++4iLXklzwcffPCr7J1Wmz8+0qTabLqmr1ix4iFZtozlWvWlA61r4SoLkyXIsmwMweHaSwdaZXarJZeO9Oeff655Xy2ijBawWuVsUDA6oTW1XkaWU2vpQCe+HjqeC9u0abNUax0Q1bWc1ryW5sPs6uPx48d/goGUkl27dv1dOtCWlqkmf7NmzdYjKFBLLGPNib2eXd96663l0oFOrgz87tG8efM6ymy1muuklFb2vyMw1I+4D2Ul0i62CwzGkv6tKc3EIzpykMxIaq0Dgg0aLSip1qY4RT6s2FL0HtKxY8f51m4wOtFJh/hOdGEJXoWBnHzWrosjlC9xQpTUE5/ZJ5WkYxp9BNiJ1sdRr1KkE52wZ8w9+HJY2bmfHdn8x9dHl4YEh7/0B5SvZKZDvaZVrfXOkNLvevt6Jr2xTa+a2aCcVKndH9Zul3/MgHk1SlZunmd+qlTPzrLjlwMJ4CiEkmrOMEzctI8//vgnS5qKB+NYPOQvU1uGRG/G0sksavPpkb5gwYKXFi5c2F4iljZt2nSTHmVqLUMGICRauQwqYDR7p9ZyrJlPOiPxZ1yqvowjH2eEZY8eWgenZL86li3PUw2WRAbsC/9cq39ygef0qFdyZWDgJbp79+6zZCZ10KBBE23ZeUbAvTAEZpouwbXWr1//Gmaf16o5Zg3vDVexzNribSbyHoN97R9iECm/dJwRr0DVQza2yWzFSoZHWu6TnEOrJR/zWEdAYWyDOHwWbbRODf6/VKyAkAkgs1/2HHwzWzkbJpCznJVcLnfu3DeUpGMafQTYidbHUa9SpNNo2nH0wDFXbaZ133/s4LrrHWNiXh7ZLd8415K+s6uXK9sgO5baxcmSb0f7iixRI+vf/eZUr/haz2JD4o/5crQ2sL4QuHDhQjEtEPKwiw/uDVryJs6D2ba9WspAABybHscle78lgqYENpPZdz2Dt6htv5wniT2/IzA7VbxLly7zjBb8KXF78DAfhnMyb6pto6R/8OCBr5Z8RsgjRzFp3Y8s+371en0VLVo0AAMsL6/7VYBk60jzWNGxRfb1Yj93DzxYanrNKGjWS0kk0jn+nr6RaPY4m7W3Jas50AG+rKUOkkeWrmNZZxd5T8b5vnPUdOBNr4lZ7CSjxZurm9YBVXPl8vfaBPA5V9hcTn9//0sScNBcOkt/Lyc6KCkjPjidkqROnUZOTlDQwLj4s7oVJGUSPQTYidZDUb8yEs9Ev1BqxOOn2RGde96UD/acOrjuWmcEGXvhDyqDX9rg9l+/0uHjmdUqvtIox3yPVO56BkuxVjTsqNzFMuztPLZc846jyr+TNe+zY7345cACyR2DZK5JOP7ivBx5ZC6dud9jr5+m5cdypI+5svX4vSzPlKVycjwXgnWNtWcAEAkgJMGVsNeqMM7y/cZRznNFAKa7Wu5FeHi4RGG29Zcu7514kCyqteJYNpl8eHsNhcp+SQ3Z3BDcLbccf6clr5o8si1E9lIiNkMjBO5SNeuq5jpJpcUgwwWZ8cXf0witr9PE5WqNzl+/fv2tWBVUSq+l63L8maU2zG9/AeyJzm2uFnIUlbk0evxePm8wIGp21lTeN/S4nguVwb9VG95sdqJtiK3wUik+ZNwNCi+5fNzZ3yZ33nPu5LbbL50Zl7tIxpPthpbt1Hd2tXJFq/rJuahGXBIdlzlnuoD3RpR96+NfqtUoVjWbfuF8FSIzmXUEZGm0lpL1miny8/PTNIKutd5q2irL17A0rTzOyOyEyMd2HTCSWX/MUBUdN27cZ3rZq7GwJC1myjXtZ9U6k2tJXfXKK3sDtZQlx5IpnfFRWj46pseUpk2cTiLxWjPQFF7H1+VIHHSeGyIYlurghFraZJoHHYNQOdJNj7IsKSNTpkwPLZl5tuTazGtcAfz9md22JFHibdUCOaPe3LUY4d2cEH9vTwF2ou2pn/S1Fd2TB7eeFFo44sSq2QMPbrlx8dFLZ/JmL+BzvsvYii07ji7XImu+9OoPaLWSSxqvVCFNPiw8uP/c6qVL18mh6wyJlarMYlUIPH78WNMeODx8hqm4jO5JMUuZXvdC4wuU5Z1yNBPOz66NoF02nRkzbZNEaZ40adKAtWvXtsAsgMPHUVBzz+zUidZl5hX74XzVtDUhLZZl3tN7eT6OCdO0tFfqhOOSrLIaAPuNV2PpdiWcgW02WJEWRxV5dLnfKq7HpBTQVUCO5dO1QAsLY3A6CwGZ3aoCijpsVq0BC08sIB/AqdSQXDoW0uDnXvsPbJx94ZuY6NiX8paonm19v9nVy9TrUOBbdw83LUu89XkocHd7Ur5JztkDf69RvH4H/3GeaVNrOndVjQ3T2l7A3LmPNqiRpqVMci6qteome1JxlM4MvfalWlJPCbwm5/1a4/xPS+rFvCkLYG+pps9qrcuBU6oNXseaVzdZayADkaw7ad23y9ceBShAAQpQQIuAko3qWsplHm0C0mFV3WmNi3VLt23BleGntt9pf3bvnX7oOL8QWTGV57NjMobdDHy8aO20c1MuHQ2pj5+VPpQpTZdci2Ny+HsffmNQyV75S/kedvtSGwxzUYACFKCAYwtYqRMtA2eaBs8cW5O1pwAFKEABewqwE21P/aSvrboTnVDM3WvhxecPObZh7uDD61t8XKwvlnRfTHyJXIUynMLPjU7tuP3GP9MvjJcl4Qqbr+kBJXVaj5A6bfP/WPfdguPSpEsdpfBaTOaCAljqXAvBcP6ztOmIdJ3O0jKYnwIUcCgBzZ+ZDtVKVpYCFKAABQwlwE60oW7Hs8pY/EBw8eD9ZlO77Tu59qdzkxp09P8ufcY0L0Q9xl7kFdGRT9ftXHJ10PaFVz6PiojJlAyDdJ411CcuvGz9HEub9iz6ReYcXjfcuhoPmTUylgDOac66devW+saqFWtDAQpQgAIUoAAFHEZAwzO7w7TNcBVlJ9pwt0SfCsXGxKXdvTTo88Prb3TbOOvClJrv5J/o45v2edRQ7EmWmeExoQ8iZ+1dEdRn97Kg/pFhMb7xV5ffyXnTssc6Lb4VzURjz3UEOs9/1W6bf3yeYplOuQ3Tpy0shQIUcHyByMhITwyWZJH952FhYckFmEruAUD+/dn70Pvvv2+1IHCOr8wWUIACFKAABShgCwF2om2hrPwaijqryotzc3sSFpNl28IrIw6su/Hx0U03+5Zvkmtx4vw+mdPKmavfhASHz1o77cKE0zvvvJaoI50G/++poBMdVaSy3/oWvYt9mr2gzwW3r9TUkGkpQAFnE0AgLPc9e/ZU37hxY1P8twbOxS6NIFd5nK2dbA8FKEABClCAAq4pwE60i9z38IfR2ZeMObVo+sf7B7TsU7xPvpKZDiduum/29Nfxc7uAI/dqr5l6/ofgy2GF8bMEFZPvZJeHpPNJfbPFx0UHVmyaZ5HbDy6CyWZSgALJCsyaNevDQoUKDb18+bI/mShAAQpQgAIGEuByZwPdDEeviqWRlx29/S5X/2tnHtX4pc+BfX+PPTn30d0n2UwBClfIsrPvrGq1W/UvPjR9Jk9Z/p3ksVtYuh1WpWXuSTiyqvSzDjS/KEABlxYICAgoVKdOne3du3efzQ60YV4KfGA0zK1gRShAAQpQwJkEOBPtTHdTaVvi3FIf2Xiry6kdd17fuuDSmFpv5Zsav0f6WQkeqZ6dAzo7/FHU35t/D/zGI5X7C+eC+pfz3Vrz7fwTcxfJeNztE6UXZToKUMBZBfbu3Vu1cuXK/zx48MDPWdvIdlGAAhSgAAUoQIEEAXaiXfi1gKjcWTbNDhh3aN2NXljG/QFmoXck5kBU7xD8PMCU6O0vynR1+8KF4dh0ClDgucDZs2eLV6tWbcPDhw99yUIBClCAAhSgAAVcQYDLuV3hLptp4/0bEUXmfnpk44oJpyciWndmklCAAhRQIhAdHZ2qXbt2i9iBVqLFNBSgAAUoQAEKOIsAO9HGu5O6R+hW0sS4OLd0B9bcGDD+/V3n1v58bnRIcER2JfmYhgIUcF2BcePGfXbs2LFyrivAllOAAhSggAMJ2OUZ24F8WFUVAlzOrQLLFZJGRcRm2/130Jf7Vlzrtn7mhV/qdSj4o5f3swBj/KIABSjwXCA8PNwrd+7cn5OEAhSggAMJsBPlQDeLVaWAkQXYiTby3bFj3WKexmXb8deVr49svPnhg9sRlTPn8Lppx+rw0k4ukC9fvqCGDRtusVczy5cvf9Re13bU665Zs6ZlSEiIr6PWn/WmAAUoQAEKUIACWgXYidYqZ718hholDb0flTs8JDoLmstOtPXuucuXXLFixcO///57F3tB4Nr2urTDXnf9+vVNHbbyrDgFKOCqAjz2zVXvPNtNAZ0F2InWGdQJizNUp94JfdkkCjikAI61qq614jlz5rz57rvvLqxUqdIhLAm/kSFDhsepU6d+Gl+ePOTK+07Cf+Wfnz/4It8CRAQvqfXazGc/AXd3d36e2I/fqa/s4eERo6CB7mFhYemR7qGCtExCAQpQIEUBdqKN9QKRBwyjPWQYrT7GumOsDQVcUCAqKip1+vTpi2lpevXq1fds2rTpVXScQ7Xkx6qFcC35mMf+ApkyZXpk/1qwBs4okDFjRkWxWx4/fpwB7efKOmd8EbBNFLCxAKNz2xjcAS9nxI69AzK6RpW9vLwitLT0yZMn6bTkYx77CFy9ejXv06dPPbVcfdSoUUO0dqC1XM8Z8mDAQtPAwf3793U/shAB5WQmT9OXp6dnlKaMzEQBMwKymkUJ0s2bN3MrSeeqaWJiYlIZqe1cvWKku8G6mAqwE22814TRZn4TllUaT4o1MpwAZgM0zTQ9ePBA94d9w+E4UYVu376dU0tz0BkMq1u37k4teV05T9asWe9oaf+jR48yBQcHZ9OSN7k8586d07yUHu24p2ddWBYFEgTy5s17TYkGXr8llKRzxjT4+7trrl14v7DZ8ab4HDF7rWzZsml67zPXTv6eAnoIsBOthyLLoAAFnglkz549WAvFhQsXimjJxzz2EcAMpwQbVP1VuHDhAMxGJux9Vp3fVTPkz5//ita279y5s7bWvEnl27Fjh6by/Pz87qVLl44z0XreDJb1XADvLReVcOzZs6eGknTOmEbiT5hr1/nz5zVt0zFXrunvQ0NDvZWsClA6OKL2+kxPAT0E2InWQ9G5yzDazLhzazt46+SoKi1NwEy0X0BAQCEteZnH9gJYyq0pngb3xGq7V0WKFAnQltPNbdmyZW205jXNFxkZ6bl27dqWWsrDe4OimUItZTMPBUqUKHFWicJ///3XIDY21iUjdMsgpjmjy5cvF9R79UpS1zxz5oyiFQGFChUyW2dzbeLvKWAtAXairSXLcingggJ42D+vtdkrV65srTUv8zmGAPbTejlGTY1Vy8yZMz/UOhu9ePHitpcuXSqoR4vmzZvXWetyT6UzhXrUk2W4ngAGaa7nyJHjtrmWBwUF5cPqjJrm0jnj78uWLXtcSbs2btzYREk6S9JgRYCie1CuXDlFdbakLo6QF9HnYxXU0x0DnWkVpGMSnQTYidYJUsdijDZCyploHW+usxdVsmTJsziqKFpLOydNmjSAnSwtcrbPozXQ1Z07d8zugbN9axzjilWrVj2gpaaIpJ7mww8/nI3VAxYFDLpx40auzz//fKyWOkgePMCf1JqX+SigRKBWrVqK4i2MHz/+MyXlOVuaGjVq7FHSJhksU5LOkjTr1q1rbi4/lnIHYfBQ0+q2FMq26jM2or97Hz16tLy5tqn9PQZS7yvJgyXymuKVKClb0kydOvVj7GXPoTS9s6djJ9pYd9iqf9zGaipr44wC6Fw9KV++/DEtbUPE5/y9e/f+2dpL7aKjo1Nv27at7qFDhypqqSfzuLn5+vo+0OIgs0BKgskkVzYeUNKHhIT4arm2o+dp2LDhFq1t2LJlSyM5lzsiIkJTFHwEKPNp27btYq174aXelStX1jQIoLXNzOd6Ai1atFinpNWy6mn9+vVWn21VUhdbpsmVK9ftMmXKnDB3TZmJPnjwoNU+H7HvuqiS2e5GjRppfs9Lro04CcQqM7WyBH748OHf+Pv7X7bGqjql8WZOnDhRztz91fJ7meDo2rXrr3379p0WFxfHvmM8IiG0vJqsm8eIHWnORlv3njtV6Q0aNPhPa4N+++23Lm3atFmm52gqljel2bt3b1XMPnzSqlWrlRKhtF69etsWLlz4rtZ6uno+rXvfxW3p0qWq9+jiASXrt99++xUeUK4EBgYWdkV/dBDWoN2a34uXLFnyTp06dRAXbIeiZZRiLH878+fPf/+VV145YUmAMixFjMEs4W5XvG9ss+0E3njjjRVp0qSJVHLFzp07z0NAS5d7L4HRSgU+7t27d5+FVSyajjFMqXwcoeXRq1ev6RgsN7sy5q233vpbQV2fJ1FyOgg60V6yqkZNuSml3b17dzW8ln6T7TYjRowYfvfu3ax6lZ24HOwNv6SkXAxOvKoknZo0+/btq1KxYsVDc+fO/UBNPldIqyk4jCvAsI0UoIA2gfbt2y/48ccfNS+XW7FixRuYJWiGma9VjRs3/hdLxM9Ipy1Lliz3TM8XDgsL80KUzwwPHz7MJB9esl8THfBcV65cKSCj3adPny7l4+NTBLPPLz0MHD58uIK2FjIXorzeluVlEhBOrcaQIUNGY7lg2DvvvLME54o/SSo/ZjwzHTt2rMKuXbtqbt68uXGePHlqJ3UP1V7bkdMXKFAgCJ3gnegE19HaDswuVUYZu3D/rlerVm1fsWLFLkjEXm9v7zBZoo+/J2/Y+12/fj2P/O3geJmqmIXOqPV6Cflwr/9GdG5NqxcsvTbzu44APiPu9+jR4/eZM2f2MNdqOaavZs2au7GsuFPz5s03mEvvLL/v1q3brB9++OEzdJBTnJE9cuRIxX79+k1Bp/fjVKlSKdmPa5YI7y/pO3bsOFNWxphLLO9RzZo1U3Vf8Jmk6D1m0aJF7XD9SebqkNTvZSXb9u3b6+A55c3Vq1e3xGvIX0s5avNgJvqOmGAAIE9KeTFY+jYGmocp7XSnVJZ0nvEsN7h69eptOPuctBQ70WpfydZPb8SZaOu3mldwGoFKlSodxZvuHsz+aj5KBKPF6SQgknybwLwwE4eH/8S/VvW3c/z48VecBt0ODZE9uhs2bGiq9tJYjp25U6dO82Q2AisCDsqDAWaP8GwSnRoDIdnkiBV0uAqqLdcV0mM53VxLOtEJRvIgtnz5ctUrAjQax3355Zej8eCqMTuzUUC5wDf4wiBdR5lxNJdLYjSgA/2PDPLIaxSzbUfN5dHj9zLDi/OqixUtWvQ8jn3TFENEaz0KFix4tWfPnr/NmDGjp7kyfvnll14yII0Bhy4I2qbp+MqEa2BQriT2ZC/E566i5cYyEy6fC+bqmPj3GGi8rCT9sGHDRmIVwhr4KzoWDa+TLJs2bWqyZs2alujMvqZl8FhJvcylqV+//tYFCxZ0SCkdVg+lw0DSTMTAaIb4NDHmykzq9/iMqfXVV1+NwkBrPS35XSkPO9HGutuqOgE2rLpR62VDAl5KjcDAgQMntmvXTnMnOoVr6fZalJnra9eu5UHwkutq2sa0/xOQJfFaOtEJfthj5Y296fyQVvGCevvtt5cMHjz4exlsUJHNrkll+SjiJDDCrl3vgutcHINyN9EhnjhmzJghClvtLlsd5BvB7060bNlydd26dXfgNXsUe4hvKSzjhWQSe0BWReHzJa/E+pBvdEbzI0p+oYsXLxbBqg9/OSYQA4ZFkNHmRzjJaqDff/+9k5KBhn/++ee14sWLn8N2mnEY+JyB1Sl31ZjI0ZWTJ0/uD89eEuRQSd60adM+wYz5r1gerST58zRKjzlDbI0Msu0MW1W+eP3111cjxsejhEJkMFdOM0DMlMqYca4r54qj4/yKEWZiX3vttfXmOtHSjn///bdxkyZNNmKg5iPcO0UnpshAgQysYgCqE1Yr1VYF78KJ2Yl24ZvPplPAWgJ42F+KN++zeBNXdBaktephplx3LG+thDTsRGu4AXjYXCUPYxqyMotGAez5C8Xs0FfyMKuxCJtmwyzbEywdHYyljza9Li/m2gKYafwWHYI3z549W1KNBIIylZVvdMCfZcO59g8xc3tZjs6S/bay7SFxebJiCoOB6aVTJgEP5VsGZ7FNxUfJdWXrEdLZvBONGdur6KCOQSCskUrqKe36+uuvvxs5cuRwBDjcjm1WmxEo8CCOtLwg2zTQCX2IZd/u2FaVEZ2xbBK34sCBA1Vl5hZH21XBNVQNfmOg8Ect58pj289NieiNwYt85tolAxxYWv4H0sXlzJnzFt6rMIkbmQb3LrsMcJjLb4/fI6bLKgzAhMkAtLnr4zz0hhhUOIPBgq1NmzbdWLp06ZOydUful7RTBnkwwFEE26bKSbwLDBRUNMJAgbl2Ge33hnyhGA2J9aEABdQJyB4qBAkb06VLl9/V5bRtauz5qYYrrrLtVZ3jagg2dQqzC0dwnAf3ltvwlqIDPRMPsm2V7Cu0YbWSvNSoUaOGyr5re9eD13ctAYm1gM7w29ivugcdXM17+iXWhnQyrKV369Yt3QJcqa0jBkDH/P3332/DSfG2JolLIe87Sb334DNfbRWSTF+lSpX96LBj4vtbTeVJRG/Msqs5osvdnvdBTSMxqPPoo48+mjd9+vSPlOSTTrF0puVbSXqmUS/A6NzqzaydQ3P0VWtXjOVTQI3A+++//weW/G5Vk8fWaWXJlq2v6UzXw7L9Sc7UHkdpy59//vm+RIM1cn3ffPPNZbKtw8h1ZN2cVwBLs09jifZbnp6eUUZtpbkgUdasN1yezp49+0Ol0cytWZeEsmUWWZYUq90LnbhuCGy60BZ1tdc1sFVhDGbNI+x1fbmuva9vz7abXpudaCPdjf/VhZ1o490T1kiDAIJaxGKk+x0JnqIhu02yYMkZO9EWSL/33nt/Kjl31IJLMGsSArJXc+3atc2xP9GiYD/WwsUSwi1//PFHRxxtxc8zayGzXLMCiO78r3QUjfpcFb+c22w7rJUAgaMOSjRnI3SkpQONGdMGlsYoefXVVzfhRI/T1jIzVy5OA3mMWf5RiAnzl7m0Wn6PwdMge27nkRNTZs2a1V1L3Z0xDzvRxrqrsm+EDx3GuiesjQUCEoQE+23q4INtowXFWC0romxmPnXqlJH3bVut7XoUjNmMGAQ6eQ974hQdLaLHNaUMLNcM16ssRy1HZtokAr6c/WyUNri7u8f27dt3Ko4NaoH9oy5/j4xyX1y5HjjD9w85kkj28BrNISgoKK+969S6des1OOu4hmzNsVdd0OFchPgkVTDgbvH+cNlKhrgRPTGIryqytyVtl88jrLxZjkBl78vxgKNHj/5KApdZUmZKebHU/Wtbr/IrVarUqb/++qsdgpY1wekru6zVNkcrl51o490xfTaW6Ncu6dSrCgqh36VZkjMIyNEYcu6znE0pUTcN1iZ3nEWs+dxdg7XFLtXB3uiTCBzV2hb3VjppX3zxxVju8frfrUbQnsCtW7fWRyCkL2zhn9ILDMF5buIBq9HUqVP7JXf+t11eoLyoywsg2vau/fv3V50zZ05XmfE0Cog9l3MnNsAAwxHpxMpntASuspUPgrZdwlnLLXD8XXu8f9zW67roYO6UPd96lZdUObJNAAG7NshxanJUmixDR6CyP7Fv+bGkxyz/XmtdP0OGDKEbN25s2rZt28XWukZCuRI8TiK5y955LJV/dj3ctytov7lBCpeYEGQn2tqvQBXle3i4x7l7uD1VkYVJKeAQArKsExE3x+GDurIs9TRCpTFLfqd///6Tcfai1UaMjdBOW9QBhjvwMNQSEWwfWuN60nmWkX4E+Sk/duzYLzESvk/unzWu5WhlyswL9sl9Lza1a9feaYf6x8m9kWi8COqz1Q7Xl0tyoNdO8I5yWfkM+uCDD37DEVNFZ86c2V2OsLJ33bGcO6e965BwfTlTWD6jxQfBq3625mof6agjMvg3ODu6NI6YWmcNAzkLumvXrnP0LBuvoRicdb17ypQpfSUYGY54bNapU6c/sIT7pYEHRMM+Y839+Bg0jcLMcPtp06Z9bI3PXXzG7pGZ9TNnzpTCao758jmTYIl2xWEA19wZ2y7xnszo3Hr+hVlYVjofz8e3Ah9XXvfz+TEBhx80RnHpLSyS2SlgKAEsQT2FCjXC7Fmdb775ZqTMotmyghhVvSh7epo3b75W9k7JsRY4w9KWVXDaa8FzM849rSJnGR8/flyXiLY4juOeHEOCh7rpOK7jHEb7n/vJfVy4cOG7TguqsmHig2Nm6i1btuxNPFj1xRncda3ZuZTgMpgJWYLgYRMqVKhwLPG9UVl1JqeAzQTkPR8Xmy3feJ8qjY5CZzkOC53Hwtb8e5EOGI6WuoLO1WnEkThZrly5o4gevgv/lmTbZWVJ/DaZhM7ISzN7sv9Wbzg5Zxtlfnzv3r2vsJ+8G07Z6CIdKUuvI8urJVo63jMWdejQYUHmzJlD1J4DraYOMiiA9B+io7lBVi9dvnzZX03++LRx8r6Kme1tOBFhs0T+zpo16z2cHe3Wr1+/FIuT4GjYarM3iejnz1Z3Yjb5+dnUGur1LEt8zImfMRO+eMKECQOx0uKD27dvax6YwbFiV1u0aLEOgw+zMZN+CNuF3PD5m2T18J5/JImo5s9fo/A3bEA/rd5J5WMnWk9NHcrKWSiDBERofXpncIt/frkw4f6NiGI6FGtJES6xJMMSIKPnxQdxCGYKt2qpp3Q6teQzl0dmLpGmAT5gSiH4WFuM6L4qy8n0PJ8RDxih8kZfsWLFw/hA2Cd7R+XsSTwsuWHPlLkqvvR7rTMX1jDUWhc8EJxV3XAVGeQ4I5xhWV2W9MoxHHhwKagi+7OkciarDHLI7GZKAx2yj05NYB5L2i5nxWr5G5J7jyPA1BJoTh8/W7AUBSzFGaD+S5cufRv7k5vjYai6nGmrueD4jDL7Lw6YPVqFM0tXy/mwWM5oabHP8uNvM0iLseTV+4HNKPdbXrNaTORM2JUrV+pyX6SQqlWr7pczZtUWaI33PrV1SCm9HNOH3w+Wb3QIcmDJd2VZ0XHhwoVi8t4l7y84TzhPREREihMacoa0nCmdJUuWuxIHRAL+SYAsiaCPGbsAf3//S/i+LLOHly5dcsP5yWab0bt3b/mQSvGDSkk5Zi+UTAK0ReJc/Cjf2LudB4Ny9XCaRSU5exvnQBe6cuVKfryneCWVXWaa5W+oePHi5zFwfgKvn71YJbML7xePsD/drU+fPlqrpTqfLEHG0VzLsKWsqQyW4B5Xw2BvsaioqDSJC5PnJNyvq3K/JDCZPDPUqlVrt3Sa0Wa3GTNmqL72jh076iWXCb9TXV5yGeQ1h98NxfPTMPjWxnt+S3nPx+u4KDrVOUzzyVJs+XuW16XsdZZ4ATLDjnafl2cjJc9HGMDukFID8BmhW/uMXJBLTLcb+QakVLfo6Jg0u/++2m/rn5e/jAqP8bNTO570nl61ap7iGU/Y6fq8rIsIhIWFeR0+fLgCAn2VOXfuXHE8bBSSh5j79+/74Xfp0TnzTqDAw0ikfFBjNPsBPuzv44PuLh5arsmDOD4YAtGZOy/7ReNHo11E0FjNxKyoB87hrrJ58+bGuK+V5MErODg4W8IDqTy0yExznjx5bsiDCx785cP8AB66TvK+6XsvIyMj06BzUFaOdJMllHgALiAPV/K3FRoa6p24kyCdAfnbkodHedCKfxg+h/Nb98kSRUbc1vfesDTjC8jfDz5/0qPTmDZ+MCpOOoT4W4iVs3uN3wLr1FA+l8Xk0aNHGcQCgwmhWAYeET/bb52L6lTq3bt3/XCGuDcG28Nlj7Ej1FlL0zGAkBrv8T448zyDDLLK0nMZ9Em8PFtLuczzPwF2oh3glfDo3pMcKyeenXp29903UV1brx5gJ9oBXiOsIgUoQAEKUIACFKAABShgGwFbd8hs0yonu0rGLOkkamHb8/vvNNq5+Oog7JduiJ/T2qiZXM5tI2hehgIUoAAFKEABClCAAhQwvgA70ca/R89rWKxqts34YXPg0ft11kw7N/l2YNgr+NloR2I5kCirSgEKUIACFKAABShAAQpQQJ0AO9HqvAyRulB5vx0xMXGVD6+71mnTnMDvwx5GZ7dixTgTbUVcFk0BClCAAhSgAAUoQAEKOJYAO9GOdb+e1zZVKnc5s+23iNDopVvmBQ7du/xa39iYOB6J5aD3k9WmAAUoQAEKUIACFKAABRxDgJ1ox7hPydbSC2dL45dfXD75YPnK8Wd/Cb4SVgY/8746+H1l9SlAAQpQgAIUoAAFKEABYwp4GLNarJVagYJlMu/7eGbVKs17F+3vlSF1sNr8KaSX5dxc0q0jKIuiAAUoQAEKUIACFKAABRxXgDOWjnvvXqp5as9UT/GPP4eGRP7179zArw+uvd4rLtYtnRM1kU2hAAUoQAEKUIACFKAABShgVwF2ou3Kb52L+/imvY+SB94JCpu2a8mVPkc23ur6NCo2k3WuxlIpQAEKUIACFKAABShAAQq4jgA70U58r7Pl8w6QznTI7YjxKyacmXThwP3X8LPa4GNczu3ErxE2jQIUoAAFKEABClCAAhRQJ8BOtDovh0ztm8PrGir+9uH11zts/DVg1ON7UXnxM8+Xdsi7yUpTgAIUoAAFKEABClCAAvYUYGAxe+rb+NoVm+X5c8BvNcrUfbfAyFSe7g9sfHlejgIUoAAFKEABClCAAhSggMMLcCba4W+hugak8/YMRY6R926Ez//nl/Ojzuy8+wZ+9jJTCqNzq2NmagpQgAIUoAAFKEABClDASQXYiXbSG2uuWVlyp7+ENO8FHLlXb83U8+ODL4eVxc9pzOXj7ylAAQpQgAIUoAAFKEABCriyAJdzu/LdR9sLV8iyre+salUbdS00xCO1+y380xMTEs5Cu/hrhM2nAAUoQAEKUIACFKAABf5fgDPRfDW4eaTyiAXD+Ps3w5fs/juo58F119tHR8bmwL/JzLT8zp1MFKAABShAAQpQgAIUoAAFKODmxk40XwXPBfxypb+KH4Y+uvdkyqZfA4Yc3nCzrVucmw/+jSsW+DqhAAUoQAEKUIACFKAABShAAQqkJHDt3MNXZvTdv/H6uUeyX5pfFKAABShAAQpQgAIUoAAFKEABCqQkEBcb5x4dHeNJJQpQgAIUoAAFKEABClCAAhSgAAUoQAEKUIACFKAABShAAQpQgAIUoAAFKEABClCAAhSgAAUoQAEKUIACFKAABShAAQpQgAIUoAAFKEABClCAAhSgAAUoQAEKUIACFKAABShAAQpQgAIUoAAFKEABClCAAhSgAAUoQAEKUIACFKAABShAAQpQgAIUoAAFKEABClCAAhSgAAUoQAEKUIACFKAABShAAQpQgAIUoAAFKEABClCAAhSgAAUoQAEKUIACFKAABShAAQpQgAIUoAAFKEABClCAAhSgAAUoQAEKUIACFKAABShAAQpQgAIUoAAFKEABClCAAhSgAAUoQAEKUIACFKAABShAAQpQgAIUoAAFKEABClCAAhSgAAUoQAEKUIACFKAABShAAQpQgAIUoAAFKEABClCAAhSgAAUoQAEKUIACFKAABShAAQpQgAIUoAAFKEABClCAAhSgAAUoQAEKUIACFKAABShAAQpQgAIUoAAFKEABClCAAhSgAAUoQAEKUIACFKAABShAAQpQgAIUoAAFKEABClCAAhSgAAUoQAEKUIACFKAABShAAQpQgAIUoAAFKEABClCAAhSgAAUoQAEKUIACFKAABShAAQpQgAIUoAAFKEABClCAAhSgAAUoQAEKUIACFKAABShAAQpQgAIUoAAFKEABClCAAhSgAAUoQAEKUIACFKAABShAAQpQgAIUoAAFKEABClCAAhSgAAUoQAEKUIACFKAABShAAQpQgAIUoAAFKEABClCAAhSgAAUoQAEKUIACFKAABShAAQpQgAIUoAAFKEABClCAAhSgAAUoQAEKUIACFKAABShAAQpQgAIUoAAFKEABClCAAhSgAAUoQAEKUIACFKAABShAAQpQgAIUoAAFKEABClCAAhSgAAUoQAEKUIACFKAABShAAQpQgAIUoAAFKEABClCAAhSgAAUoQAEKUIACFKAABShAAQpQgAIUoAAFKEABClCAAhSgAAUoQAEKUIACFKAABShAAQpQgAIUoAAFKEABClCAAhSgAAUoQAEKUIACFKAABShAAQpQgAIUoAAFKEABClCAAhSgAAUoQAEKUIACFKAABShAAQpQgAIUoAAFKEABClCAAhSgAAUoQAEKUIACFKAABShAAQpQgAIUoAAFKEABClCAAhSgAAUoQAEKUIACFKAABShAAQpQgAIUoAAFKEABClCAAhSgAAUoQAEKUIACFKAABShAAQpQgAIUoAAFKEABClCAAhSgAAUoQAEKUIACFKAABShAAQpQgAIUoAAFKEABClCAAhSgAAUoQAEKUIACFKAABShAAQpQgAIUoAAFKEABClCAAhSgAAUoQAEKUIACFKAABShAAQpQgAIUoAAFKEABClCAAhSgAAUoQAEKUIACFKAABShAAQpQgAIUoAAFKEABClCAAhSgAAUoQAEKUIACFKAABShAAQpQgAIUoAAFKEABClCAAhSgAAUoQAEKUIACFKAABShAAQpQgAIUoAAFKEABClCAAhSgAAUoQAEKUIACFKAABShAAQpQgAIUoAAFKEABClCAAhSgAAUoQAEKUIACFKAABShAAQpQgAIUoAAFKEABClCAAoYX+D/5QFDdvD/eJgAAAABJRU5ErkJggg==;" vertex="1" parent="1">
          <mxGeometry x="540" y="510" width="240" height="62.64" as="geometry" />
        </mxCell>
        <mxCell id="GzNp09a5p9RIQE0UfILk-22" value="" style="sketch=0;aspect=fixed;html=1;points=[];align=center;image;fontSize=12;image=img/lib/mscae/Azure_DevOps.svg;" vertex="1" parent="1">
          <mxGeometry x="180" y="257.5" width="90" height="90" as="geometry" />
        </mxCell>
      </root>
    </mxGraphModel>
  </diagram>
</mxfile>
